<svg xmlns="http://www.w3.org/2000/svg" xmlns:xlink="http://www.w3.org/1999/xlink" width="530" height="220" viewBox="0 0 530 220">
  <defs>
    <clipPath id="clip-path">
      <rect id="Rectangle_125" data-name="Rectangle 125" width="530" height="220" transform="translate(-18021.5 5957.5)" fill="#fff" stroke="#707070" stroke-width="1"/>
    </clipPath>
  </defs>
  <g id="appletv" transform="translate(18021.5 -5957.5)" clip-path="url(#clip-path)">
    <g id="Apple_TV_Plus" data-name="Apple TV Plus" transform="translate(-17987.006 5884.999)">
      <path id="Path_218" data-name="Path 218" d="M132.572,144.247A25.278,25.278,0,0,0,138.128,126a25.477,25.477,0,0,0-16.65,8.592,23.793,23.793,0,0,0-6.007,17.335,21,21,0,0,0,17.106-7.679m5.4,8.743c-9.276-.608-17.182,5.245-21.364,5.245s-11.176-5.018-18.551-4.866a27.3,27.3,0,0,0-23.266,14.212c-10.037,17.182-2.661,42.882,7.147,56.643,4.714,7.147,10.34,14.294,17.867,14.294s9.808-4.561,18.4-4.561,11.024,4.561,18.551,4.41,12.621-7.147,17.258-13.837a59.046,59.046,0,0,0,7.679-15.89,24.977,24.977,0,0,1-14.9-23.037,25.705,25.705,0,0,1,12.161-21.364,26.2,26.2,0,0,0-20.6-11.176" transform="translate(0)" fill="#fff" fill-rule="evenodd"/>
      <path id="Path_219" data-name="Path 219" d="M247.182,149.476v17.792h14.212v12.24H247.182v41.817c0,6.463,2.813,9.5,9.2,9.5a39.424,39.424,0,0,0,5.171-.379v12.161a40.55,40.55,0,0,1-8.592.684c-15.358,0-21.364-5.779-21.364-20.453V179.661H220.8V167.192h10.948V149.4Zm66.451,93.67H297.059l-27.371-75.8h16.574l19.008,60.52,19.235-60.52h16.264ZM425.55,197.679H395.367V167.422H381v30.261H350.961v14.212H381v30.411h14.369V211.9H425.55Z" transform="translate(-36.147 -5.61)" fill="#fff" fill-rule="evenodd"/>
    </g>
  </g>
</svg>
