<svg xmlns="http://www.w3.org/2000/svg" xmlns:xlink="http://www.w3.org/1999/xlink" width="530" height="220" viewBox="0 0 530 220">
  <defs>
    <clipPath id="clip-path">
      <rect id="Rectangle_125" data-name="Rectangle 125" width="530" height="220" transform="translate(-18022 5957)" fill="#fff" stroke="#707070" stroke-width="1"/>
    </clipPath>
  </defs>
  <g id="appletv" transform="translate(18022 -5957)" clip-path="url(#clip-path)">
    <g id="Apple_TV_Plus" data-name="Apple TV Plus" transform="translate(-17936.004 5903)">
      <path id="Path_218" data-name="Path 218" d="M112.708,138.454A17.252,17.252,0,0,0,116.5,126a17.388,17.388,0,0,0-11.364,5.864,16.239,16.239,0,0,0-4.1,11.831,14.335,14.335,0,0,0,11.675-5.241m3.684,5.967c-6.331-.415-11.727,3.58-14.581,3.58s-7.628-3.425-12.661-3.321a18.631,18.631,0,0,0-15.879,9.7c-6.85,11.727-1.816,29.267,4.878,38.659,3.217,4.878,7.057,9.756,12.194,9.756s6.694-3.113,12.558-3.113,7.524,3.113,12.661,3.01,8.614-4.878,11.779-9.444a40.3,40.3,0,0,0,5.241-10.845,17.047,17.047,0,0,1-10.171-15.723,17.544,17.544,0,0,1,8.3-14.581,17.884,17.884,0,0,0-14.062-7.628" transform="translate(0)" fill="#fff" fill-rule="evenodd"/>
      <path id="Path_219" data-name="Path 219" d="M238.806,149.452v12.143h9.7v8.354h-9.7v28.54c0,4.411,1.92,6.486,6.279,6.486a26.907,26.907,0,0,0,3.529-.259v8.3a27.674,27.674,0,0,1-5.864.467c-10.482,0-14.581-3.944-14.581-13.959V170.053H220.8v-8.51h7.472V149.4Zm45.353,63.93H272.847l-18.681-51.735h11.312l12.973,41.305,13.128-41.305h11.1Zm76.384-31.031h-20.6V161.7h-9.807v20.653h-20.5v9.7h20.5v20.756h9.807V192.054h20.6Z" transform="translate(-72.547 -11.258)" fill="#fff" fill-rule="evenodd"/>
    </g>
  </g>
</svg>
