<svg xmlns="http://www.w3.org/2000/svg" xmlns:xlink="http://www.w3.org/1999/xlink" width="530" height="220" viewBox="0 0 530 220">
  <defs>
    <clipPath id="clip-path">
      <rect id="Rectangle_124" data-name="Rectangle 124" width="530" height="220" transform="translate(-18022 5462)" fill="#fff" stroke="#707070" stroke-width="1"/>
    </clipPath>
  </defs>
  <g id="atresplayer" transform="translate(18022 -5462)" clip-path="url(#clip-path)">
    <g id="logo-atresplayer" transform="translate(-17944.391 5490.823)">
      <path id="Path_216" data-name="Path 216" d="M282.807,119.558,332.819,155.5l104.3-74.967L332.819,5.567,282.807,41.514l51.474,37a2.491,2.491,0,0,1,0,4.046l-51.474,36.993Zm50.012,41.513a2.5,2.5,0,0,1-1.462-.471L277.07,121.583a2.491,2.491,0,0,1,0-4.046l51.473-36.993L277.07,43.537a2.492,2.492,0,0,1,0-4.046L331.357.471a2.5,2.5,0,0,1,2.923,0L442.859,78.517a2.491,2.491,0,0,1,0,4.046L334.28,160.6a2.494,2.494,0,0,1-1.461.471h0Z" transform="translate(-68.368 1)" fill="#ff0028" stroke="#ff0028" stroke-width="0.5" fill-rule="evenodd"/>
      <path id="Path_217" data-name="Path 217" d="M16.563,45.647,0,84.485H8.669l3.534-8.65h16.35l3.534,8.65H40.98L24.4,45.647Zm3.818,10.194,5.132,12.5H15.242l5.14-12.5Zm39.88-2.095v30.74H51.753V53.746H40V45.923H72.019v7.823Zm42.7,5.344c0-3.636-2.535-5.51-6.68-5.51H87.826V64.655h8.615c4.142,0,6.516-2.2,6.516-5.451v-.111Zm-.163,25.4L94.51,72.149H87.826V84.486h-8.5V45.923H97c9.114,0,14.578,4.791,14.578,12.724v.118a11.971,11.971,0,0,1-8.286,11.946l9.442,13.775h-9.936Zm17.242,0V45.922H149.2v7.549H128.488v7.82h18.22v7.548h-18.22v8.1h20.984v7.548Zm51.537.55a24.623,24.623,0,0,1-16.4-6.172l5.025-6.008c3.477,2.865,7.127,4.683,11.546,4.683,3.474,0,5.578-1.378,5.578-3.638v-.1c0-2.147-1.331-3.25-7.791-4.9-7.786-1.985-12.812-4.134-12.812-11.791V57c0-6.995,5.636-11.625,13.529-11.625a22.41,22.41,0,0,1,14.357,4.9l-4.418,6.39c-3.422-2.368-6.786-3.8-10.048-3.8s-4.971,1.487-4.971,3.359v.11c0,2.532,1.659,3.359,8.341,5.066,7.839,2.042,12.253,4.847,12.253,11.568v.118c0,7.658-5.855,11.953-14.192,11.953M28.107,122.837a11.107,11.107,0,0,1-1.923,4.082,9.2,9.2,0,0,1-3.457,2.737,11.872,11.872,0,0,1-5.057.99,14.646,14.646,0,0,1-5.144-.886,14.417,14.417,0,0,1-3.6-1.831l-.118-.088v-22.1l.219-.058a21.093,21.093,0,0,1,2.74-.471,43.484,43.484,0,0,1,4.749-.2,12,12,0,0,1,8.849,3.334c2.205,2.211,3.325,5.4,3.325,9.484a20.573,20.573,0,0,1-.589,5.008m1.96-17.981a16.612,16.612,0,0,0-5.792-3.516A22.385,22.385,0,0,0,16.6,100.1a47.789,47.789,0,0,0-8.194.624c-2.238.4-4.156.768-5.7,1.106v45.123h6.1V132.945l.445.266a19.187,19.187,0,0,0,9.28,2.28,18.026,18.026,0,0,0,7.046-1.3,14.572,14.572,0,0,0,5.184-3.637,15.754,15.754,0,0,0,3.215-5.595,22.34,22.34,0,0,0,1.1-7.129,19.988,19.988,0,0,0-1.314-7.412,15.433,15.433,0,0,0-3.708-5.561m19.009,24.452a3.662,3.662,0,0,1-1.019-1.725,9.55,9.55,0,0,1-.3-2.6V92.069l-6.109.967V125.98c0,3.164.84,5.521,2.5,7,1.629,1.46,4.434,2.257,8.341,2.369l.835-4.616a18.613,18.613,0,0,1-2.4-.471,4.435,4.435,0,0,1-1.85-.963m31.307,1.014-.236.051a19.947,19.947,0,0,1-3.107.371c-1.211.066-2.633.1-4.226.1a13.187,13.187,0,0,1-6.409-1.33,5.111,5.111,0,0,1-2.454-4.86,4.581,4.581,0,0,1,1.008-3.075,6.862,6.862,0,0,1,2.441-1.8,10.826,10.826,0,0,1,3.181-.852,28.565,28.565,0,0,1,7.2.034,9.388,9.388,0,0,1,2.419.589l.173.077v10.7Zm2.916-26.761a10.894,10.894,0,0,0-4.347-2.643,20.769,20.769,0,0,0-6.707-.943,40.308,40.308,0,0,0-6.5.494,24.088,24.088,0,0,0-4.04.925l.7,4.518a25.2,25.2,0,0,1,3.417-.789,34.955,34.955,0,0,1,5.848-.435,11.112,11.112,0,0,1,4.328.721,6.816,6.816,0,0,1,2.667,1.942,6.97,6.97,0,0,1,1.352,2.765,13.1,13.1,0,0,1,.37,3.084v2.088l-.353-.08c-.19-.041-.523-.107-1-.194s-1.041-.189-1.687-.3-1.321-.2-2.029-.264-1.414-.1-2.062-.1a29.563,29.563,0,0,0-5.987.589,16.461,16.461,0,0,0-4.948,1.821A9.36,9.36,0,0,0,59,119.973a8.954,8.954,0,0,0-1.217,4.751,10.865,10.865,0,0,0,1.05,4.967,8.56,8.56,0,0,0,2.924,3.3,13.406,13.406,0,0,0,4.508,1.846,26.508,26.508,0,0,0,5.773.589c1.468,0,2.974-.055,4.477-.165s2.9-.236,4.2-.363,2.465-.276,3.479-.428l2.162-.326V112.859a18.458,18.458,0,0,0-.707-5.25A9.839,9.839,0,0,0,83.294,103.555Zm25.624,25.522-.3-.581c-1.156-2.262-2.274-4.631-3.319-7.041-1.06-2.435-2.053-4.893-2.957-7.3s-1.744-4.8-2.488-7.1c-.717-2.214-1.342-4.306-1.854-6.224H91.423a138.752,138.752,0,0,0,6.395,17.644,182.139,182.139,0,0,0,8.446,16.835l.079.134-.07.14a14.447,14.447,0,0,1-4.123,5.376,10.693,10.693,0,0,1-6.362,1.68,11.075,11.075,0,0,1-2.552-.306,15.553,15.553,0,0,1-1.777-.52l-1.085,4.4c.178.065.415.14.707.226.442.128.943.249,1.487.353s1.111.2,1.667.259a14,14,0,0,0,1.622.1,19.237,19.237,0,0,0,5.211-.652,12.623,12.623,0,0,0,4.116-2,15.776,15.776,0,0,0,3.356-3.481,34.664,34.664,0,0,0,2.962-5.091c2.428-5.168,4.724-10.811,6.833-16.767,2.059-5.841,3.962-12.008,5.655-18.327h-6.308c-1.178,4.713-2.443,9.361-3.763,13.835-1.342,4.538-2.945,9.182-4.761,13.807l-.236.607Zm43.227-14.336H132.952l.04-.328a14.423,14.423,0,0,1,.917-3.585,10.108,10.108,0,0,1,1.966-3.137,9.6,9.6,0,0,1,7.273-3.077,8.42,8.42,0,0,1,6.665,2.784,10.111,10.111,0,0,1,2.34,7.057v.289Zm-8.929-14.775a18.214,18.214,0,0,0-6.235,1.109,15.452,15.452,0,0,0-5.369,3.316,16.341,16.341,0,0,0-3.746,5.566,20.2,20.2,0,0,0-1.414,7.871,21.948,21.948,0,0,0,1.1,7.095,14.743,14.743,0,0,0,3.352,5.556,15.648,15.648,0,0,0,5.761,3.675,23.6,23.6,0,0,0,8.353,1.34,32.907,32.907,0,0,0,6.886-.657,23.134,23.134,0,0,0,4.014-1.144l-.825-4.587a26.1,26.1,0,0,1-3.344.971,27.1,27.1,0,0,1-6.008.571c-4.241,0-7.4-.964-9.418-2.863a12.407,12.407,0,0,1-3.474-8.341l-.026-.316h25.683c.027-.271.04-.561.04-.866v-1.027c0-5.815-1.33-10.2-3.953-13.02s-6.448-4.241-11.375-4.241Zm40.049.494c-.74-.112-1.473-.2-2.176-.263-.728-.065-1.384-.1-1.955-.1a40.964,40.964,0,0,0-7.863.69,50.049,50.049,0,0,0-5.667,1.414V134.7h6.106V105.8l.23-.052q.577-.132,2.42-.5a19.414,19.414,0,0,1,3.77-.371,25.4,25.4,0,0,1,4.773.371c1.016.2,1.8.384,2.35.542l1.027-4.781c-.265-.067-.614-.14-1.041-.22q-.9-.163-1.97-.33" transform="translate(0 -10.238)" fill="#fdfcff" fill-rule="evenodd"/>
    </g>
  </g>
</svg>
