<svg xmlns="http://www.w3.org/2000/svg" xmlns:xlink="http://www.w3.org/1999/xlink" width="530" height="220" viewBox="0 0 530 220">
  <defs>
    <clipPath id="clip-path">
      <rect id="Rectangle_124" data-name="Rectangle 124" width="530" height="220" transform="translate(-18022 5462)" fill="#fff" stroke="#707070" stroke-width="1"/>
    </clipPath>
  </defs>
  <g id="atresplayer" transform="translate(18022 -5462)" clip-path="url(#clip-path)">
    <g id="logo-atresplayer" transform="translate(-17916 5503)">
      <path id="Path_216" data-name="Path 216" d="M281.783,101.481l42.45,30.511L412.765,68.36,324.233,4.725l-42.45,30.512,43.691,31.406a2.114,2.114,0,0,1,0,3.434l-43.691,31.4Zm42.45,35.236a2.119,2.119,0,0,1-1.241-.4L276.913,103.2a2.114,2.114,0,0,1,0-3.434l43.69-31.4L276.913,36.954a2.115,2.115,0,0,1,0-3.434L322.992.4a2.126,2.126,0,0,1,2.481,0l92.162,66.245a2.114,2.114,0,0,1,0,3.434l-92.162,66.239a2.117,2.117,0,0,1-1.24.4h0Z" transform="translate(-99.767 1)" fill="#ff0028" stroke="#ff0028" stroke-width="0.5" fill-rule="evenodd"/>
      <path id="Path_217" data-name="Path 217" d="M14.059,45.605,0,78.571H7.358l3-7.342H24.236l3,7.342h7.548L20.714,45.605ZM17.3,54.258,21.656,64.87H12.937L17.3,54.257Zm33.85-1.778V78.572H43.928V52.48h-9.98V45.84H61.13v6.64Zm36.242,4.536c0-3.086-2.152-4.677-5.67-4.677H74.547v9.4h7.312c3.516,0,5.531-1.869,5.531-4.627v-.094Zm-.138,21.556L80.22,68.1H74.547V78.572H67.331V45.84h15c7.736,0,12.374,4.067,12.374,10.8v.1A10.161,10.161,0,0,1,87.672,66.88l8.014,11.692H87.252Zm14.635,0V45.839h24.75v6.408H109.061v6.638h15.465v6.407H109.061v6.872h17.811v6.407Zm43.745.467A20.9,20.9,0,0,1,131.71,73.8l4.265-5.1c2.951,2.432,6.049,3.975,9.8,3.975,2.949,0,4.735-1.17,4.735-3.088V69.5c0-1.822-1.13-2.759-6.613-4.158-6.609-1.685-10.875-3.509-10.875-10.008v-.093c0-5.937,4.784-9.867,11.483-9.867a19.022,19.022,0,0,1,12.186,4.16l-3.75,5.424c-2.905-2.01-5.76-3.222-8.529-3.222s-4.219,1.262-4.219,2.851v.093c0,2.149,1.408,2.851,7.08,4.3,6.654,1.733,10.4,4.114,10.4,9.819v.1c0,6.5-4.97,10.146-12.046,10.146M23.857,111.124a9.428,9.428,0,0,1-1.632,3.465,7.812,7.812,0,0,1-2.934,2.323,10.077,10.077,0,0,1-4.292.84A12.431,12.431,0,0,1,10.633,117a12.238,12.238,0,0,1-3.057-1.554l-.1-.075V96.614l.186-.049a17.906,17.906,0,0,1,2.326-.4,36.906,36.906,0,0,1,4.031-.171,10.188,10.188,0,0,1,7.511,2.83c1.872,1.877,2.822,4.586,2.822,8.05a17.462,17.462,0,0,1-.5,4.251m1.664-15.262A14.1,14.1,0,0,0,20.6,92.879a19,19,0,0,0-6.513-1.054,40.564,40.564,0,0,0-6.955.53c-1.9.336-3.528.652-4.835.939v38.3H7.478v-11.89l.378.226a16.286,16.286,0,0,0,7.877,1.935,15.3,15.3,0,0,0,5.981-1.106,12.369,12.369,0,0,0,4.4-3.087,13.372,13.372,0,0,0,2.729-4.749,18.962,18.962,0,0,0,.936-6.051,16.966,16.966,0,0,0-1.115-6.291,13.1,13.1,0,0,0-3.147-4.72m16.135,20.755a3.108,3.108,0,0,1-.865-1.464,8.106,8.106,0,0,1-.253-2.206V85.008l-5.185.821v27.963c0,2.686.713,4.686,2.118,5.944,1.383,1.239,3.764,1.916,7.08,2.011l.709-3.918a15.8,15.8,0,0,1-2.034-.4,3.765,3.765,0,0,1-1.57-.817m26.573.861-.2.043a16.93,16.93,0,0,1-2.637.315c-1.028.056-2.235.085-3.587.085a11.193,11.193,0,0,1-5.44-1.129,4.338,4.338,0,0,1-2.083-4.125,3.888,3.888,0,0,1,.856-2.61,5.825,5.825,0,0,1,2.072-1.526,9.189,9.189,0,0,1,2.7-.723,24.245,24.245,0,0,1,6.115.029,7.969,7.969,0,0,1,2.053.5l.147.065v9.079ZM70.7,94.758a9.247,9.247,0,0,0-3.69-2.243,17.629,17.629,0,0,0-5.693-.8,34.213,34.213,0,0,0-5.52.419,20.447,20.447,0,0,0-3.429.785l.594,3.835a21.392,21.392,0,0,1,2.9-.67,29.67,29.67,0,0,1,4.964-.369,9.432,9.432,0,0,1,3.674.612,5.785,5.785,0,0,1,2.264,1.648,5.916,5.916,0,0,1,1.148,2.347,11.118,11.118,0,0,1,.314,2.618v1.772l-.3-.068c-.161-.035-.444-.091-.847-.165s-.884-.16-1.432-.252-1.121-.168-1.722-.224-1.2-.083-1.75-.083a25.094,25.094,0,0,0-5.082.5,13.972,13.972,0,0,0-4.2,1.546,7.945,7.945,0,0,0-2.815,2.727,7.6,7.6,0,0,0-1.033,4.033,9.222,9.222,0,0,0,.891,4.216,7.266,7.266,0,0,0,2.482,2.8,11.379,11.379,0,0,0,3.826,1.567,22.5,22.5,0,0,0,4.9.5c1.246,0,2.524-.047,3.8-.14s2.465-.2,3.568-.308,2.092-.234,2.953-.363q1.133-.17,1.835-.277V102.655a15.668,15.668,0,0,0-.6-4.456A8.351,8.351,0,0,0,70.7,94.758Zm21.75,21.663-.253-.493c-.981-1.92-1.93-3.931-2.817-5.976-.9-2.067-1.743-4.153-2.51-6.2s-1.48-4.078-2.112-6.028c-.609-1.879-1.139-3.655-1.574-5.283H77.6a117.773,117.773,0,0,0,5.428,14.976,154.6,154.6,0,0,0,7.169,14.29l.067.114-.059.119a12.263,12.263,0,0,1-3.5,4.563,9.076,9.076,0,0,1-5.4,1.426,9.4,9.4,0,0,1-2.166-.26,13.2,13.2,0,0,1-1.508-.441l-.921,3.732c.151.055.352.119.6.192.375.109.8.211,1.262.3s.943.167,1.415.22a11.878,11.878,0,0,0,1.377.083,16.329,16.329,0,0,0,4.423-.553,10.714,10.714,0,0,0,3.494-1.7,13.391,13.391,0,0,0,2.849-2.955,29.424,29.424,0,0,0,2.514-4.321c2.061-4.387,4.01-9.176,5.8-14.232,1.748-4.958,3.363-10.192,4.8-15.556H99.89c-1,4-2.074,7.946-3.194,11.743-1.139,3.852-2.5,7.794-4.041,11.719l-.2.515Zm36.691-12.168H112.85l.034-.278a12.242,12.242,0,0,1,.778-3.043,8.58,8.58,0,0,1,1.669-2.663,8.148,8.148,0,0,1,6.173-2.612,7.147,7.147,0,0,1,5.657,2.363,8.582,8.582,0,0,1,1.986,5.99l0,.245Zm-7.579-12.541a15.46,15.46,0,0,0-5.292.941,13.116,13.116,0,0,0-4.557,2.815,13.87,13.87,0,0,0-3.18,4.724,17.147,17.147,0,0,0-1.2,6.681,18.63,18.63,0,0,0,.934,6.022,12.514,12.514,0,0,0,2.845,4.716,13.282,13.282,0,0,0,4.89,3.119,20.029,20.029,0,0,0,7.09,1.137,27.932,27.932,0,0,0,5.845-.558,19.637,19.637,0,0,0,3.407-.971l-.7-3.893a22.154,22.154,0,0,1-2.838.824,23,23,0,0,1-5.1.485c-3.6,0-6.284-.818-7.994-2.43a10.531,10.531,0,0,1-2.949-7.08l-.022-.268h21.8c.023-.23.034-.476.034-.735v-.872c0-4.936-1.129-8.654-3.355-11.051s-5.473-3.6-9.655-3.6Zm33.994.419c-.628-.095-1.25-.169-1.847-.223-.618-.055-1.175-.083-1.659-.083a34.77,34.77,0,0,0-6.674.586,42.483,42.483,0,0,0-4.81,1.2V121.19h5.183V96.662l.195-.044q.49-.112,2.054-.423a16.479,16.479,0,0,1,3.2-.315,21.558,21.558,0,0,1,4.051.315c.862.171,1.531.326,1.995.46l.872-4.058c-.225-.057-.521-.119-.884-.187-.507-.092-1.064-.186-1.672-.28" transform="translate(0 -15.399)" fill="#fdfcff" fill-rule="evenodd"/>
    </g>
  </g>
</svg>
