<svg xmlns="http://www.w3.org/2000/svg" xmlns:xlink="http://www.w3.org/1999/xlink" width="530" height="220" viewBox="0 0 530 220">
  <defs>
    <clipPath id="clip-path">
      <rect id="Rectangle_123" data-name="Rectangle 123" width="530" height="220" transform="translate(-17085 5462)" fill="#fff" stroke="#707070" stroke-width="1"/>
    </clipPath>
  </defs>
  <g id="crunchyroll" transform="translate(17085 -5462)" clip-path="url(#clip-path)">
    <g id="Crunchyroll-2" data-name="Crunchyroll" transform="translate(-17082 5304)">
      <path id="Path_220" data-name="Path 220" d="M816.2,299.794V259.1h7.144v40.743H816.2Z" transform="translate(-380.295 -12.983)" fill="#fff"/>
      <path id="Path_221" data-name="Path 221" d="M784.2,299.794V259.1h7.144v40.743H784.2Z" transform="translate(-363.743 -12.983)" fill="#fff"/>
      <path id="Path_222" data-name="Path 222" d="M741.8,296.861c0,9.8-4.924,15.061-13.951,15.061s-13.951-5.31-13.951-15.061,4.924-15.061,13.951-15.061S741.8,287.062,741.8,296.861Zm-6.807,0c0-7.917-2.655-9.413-6.807-9.413s-6.807,1.5-6.807,9.413,2.655,9.413,6.807,9.413C731.954,306.275,735,304.826,735,296.861Z" transform="translate(-327.379 -24.725)" fill="#fff"/>
      <path id="Path_223" data-name="Path 223" d="M691.047,281.747v6.034c-3.765,0-8.3,0-8.3,1.883v21.916H675.6V285.512C675.938,280.974,691.047,281.747,691.047,281.747Z" transform="translate(-307.567 -24.672)" fill="#fff"/>
      <path id="Path_224" data-name="Path 224" d="M612.862,323.681c5.31-13.179,4.924-12.068,5.31-13.179L607.6,282.6h7.579l6.807,20.323,6.372-20.323h7.579l-11.3,30.122-4.151,10.958Z" transform="translate(-272.393 -25.139)" fill="#fff"/>
      <path id="Path_225" data-name="Path 225" d="M570.757,282.178v17.765h-7.144V281.792c0-2.655-.772-5.262-7.144-5.262a19.044,19.044,0,0,0-4.924.772v22.64H544.4V259.2h7.144v11.682a13.567,13.567,0,0,1,6.034-1.11C566.219,270.11,570.757,274.6,570.757,282.178Z" transform="translate(-239.702 -13.035)" fill="#fff"/>
      <path id="Path_226" data-name="Path 226" d="M500.861,305.523a23.822,23.822,0,0,0,7.579-1.545v6.034a21.294,21.294,0,0,1-8.689,1.5c-9.075,0-13.951-5.262-13.951-15.061S490.724,281,499.751,281a31.311,31.311,0,0,1,8.689,1.545v6.034a22.523,22.523,0,0,0-7.579-1.5c-4.924,0-7.917,1.5-7.917,9.075C492.944,303.978,495.986,305.523,500.861,305.523Z" transform="translate(-209.39 -24.312)" fill="#fff"/>
      <path id="Path_227" data-name="Path 227" d="M449.143,292.682v18.44h-6.807v-18.44c0-2.655,0-5.262-6.034-5.262-1.883,0-5.7.338-5.7,1.5v22.254H423.8V286.7c0-4.924,6.034-5.7,13.565-5.7C445.04,281.386,449.143,284.379,449.143,292.682Z" transform="translate(-177.319 -24.312)" fill="#fff"/>
      <path id="Path_228" data-name="Path 228" d="M382.019,282.5v16.22c0,8.689-2.993,13.951-13.179,13.951S356,307.409,356,298.72V282.5h6.807v16.992c0,4.924,1.883,6.372,6.034,6.372s6.034-1.5,6.034-6.372V282.5Z" transform="translate(-142.249 -25.087)" fill="#fff"/>
      <path id="Path_229" data-name="Path 229" d="M327.847,281.747v6.034c-3.814,0-8.3,0-8.3,1.883v21.916H312.4V285.512C312.738,280.974,327.847,281.747,327.847,281.747Z" transform="translate(-119.696 -24.672)" fill="#fff"/>
      <path id="Path_230" data-name="Path 230" d="M266.7,305.523a19.178,19.178,0,0,0,7.144-1.545v6.034a21.294,21.294,0,0,1-8.689,1.5c-9.075,0-13.951-5.262-13.951-15.061S256.124,281,265.151,281a31.311,31.311,0,0,1,8.689,1.545v6.034a21.232,21.232,0,0,0-7.144-1.5c-4.924,0-7.917,1.5-7.917,9.075C258.441,303.978,261.868,305.523,266.7,305.523Z" transform="translate(-88.039 -24.312)" fill="#fff"/>
      <path id="Path_231" data-name="Path 231" d="M89.351,272.136a29.83,29.83,0,0,1,59.569-2.269v-1.883a33.96,33.96,0,1,0-33.984,33.936H117.2A29.97,29.97,0,0,1,89.351,272.136Z" transform="translate(0 0)" fill="#fff"/>
      <path id="Path_232" data-name="Path 232" d="M152.17,290.649a10.878,10.878,0,0,1-3.814-21.1A22.832,22.832,0,0,0,137.4,266.9a23.8,23.8,0,1,0,23.8,23.8h0a20.328,20.328,0,0,0-.338-4.538A9.616,9.616,0,0,1,152.17,290.649Z" transform="translate(-16.863 -17.016)" fill="#fff"/>
    </g>
  </g>
</svg>
