<svg xmlns="http://www.w3.org/2000/svg" xmlns:xlink="http://www.w3.org/1999/xlink" width="530" height="220" viewBox="0 0 530 220">
  <defs>
    <clipPath id="clip-path">
      <rect id="Rectangle_123" data-name="Rectangle 123" width="530" height="220" transform="translate(-17085 5462)" fill="#fff" stroke="#707070" stroke-width="1"/>
    </clipPath>
  </defs>
  <g id="crunchyroll" transform="translate(17085 -5462)" clip-path="url(#clip-path)">
    <g id="Crunchyroll-2" data-name="Crunchyroll" transform="translate(-17121.873 5296.52)">
      <path id="Path_220" data-name="Path 220" d="M816.2,308.757V259.1h8.718v49.717H816.2Z" transform="translate(-302.123 -10.314)" fill="#fff"/>
      <path id="Path_221" data-name="Path 221" d="M784.2,308.757V259.1h8.718v49.717H784.2Z" transform="translate(-288.973 -10.314)" fill="#fff"/>
      <path id="Path_222" data-name="Path 222" d="M747.946,300.178c0,11.959-6.009,18.378-17.024,18.378s-17.024-6.48-17.024-18.378,6.009-18.378,17.024-18.378S747.946,288.221,747.946,300.178Zm-8.306,0c0-9.661-3.24-11.486-8.306-11.486s-8.306,1.83-8.306,11.486,3.24,11.486,8.306,11.486c4.6,0,8.315-1.767,8.315-11.486Z" transform="translate(-260.085 -19.642)" fill="#fff"/>
      <path id="Path_223" data-name="Path 223" d="M694.449,281.758v7.363c-4.594,0-10.128,0-10.128,2.3v26.743H675.6v-31.81C676.012,280.815,694.449,281.758,694.449,281.758Z" transform="translate(-244.344 -19.6)" fill="#fff"/>
      <path id="Path_224" data-name="Path 224" d="M614.021,332.73c6.48-16.082,6.009-14.726,6.48-16.082L607.6,282.6h9.248l8.306,24.8,7.776-24.8h9.248L628.39,319.357l-5.065,13.372Z" transform="translate(-216.401 -19.971)" fill="#fff"/>
      <path id="Path_225" data-name="Path 225" d="M576.563,287.239v21.678h-8.718V286.768c0-3.24-.942-6.421-8.718-6.421a23.24,23.24,0,0,0-6.009.942v27.627H544.4V259.2h8.718v14.255a16.555,16.555,0,0,1,7.363-1.354C571.025,272.513,576.563,277.992,576.563,287.239Z" transform="translate(-190.43 -10.356)" fill="#fff"/>
      <path id="Path_226" data-name="Path 226" d="M504.178,310.924a29.069,29.069,0,0,0,9.248-1.885V316.4a25.985,25.985,0,0,1-10.6,1.83c-11.074,0-17.024-6.421-17.024-18.378S491.809,281,502.824,281a38.206,38.206,0,0,1,10.6,1.885v7.363a27.484,27.484,0,0,0-9.248-1.83c-6.009,0-9.661,1.83-9.661,11.074C494.518,309.039,498.23,310.924,504.178,310.924Z" transform="translate(-166.349 -19.315)" fill="#fff"/>
      <path id="Path_227" data-name="Path 227" d="M454.725,295.255v22.5h-8.306v-22.5c0-3.24,0-6.421-7.363-6.421-2.3,0-6.956.412-6.956,1.83V317.82h-8.3V287.956c0-6.009,7.363-6.956,16.553-6.956C449.718,281.471,454.725,285.123,454.725,295.255Z" transform="translate(-140.87 -19.315)" fill="#fff"/>
      <path id="Path_228" data-name="Path 228" d="M387.75,282.5v19.793c0,10.6-3.652,17.024-16.082,17.024S356,312.9,356,302.293V282.5h8.306v20.735c0,6.009,2.3,7.776,7.363,7.776s7.363-1.83,7.363-7.776V282.5Z" transform="translate(-113.009 -19.93)" fill="#fff"/>
      <path id="Path_229" data-name="Path 229" d="M331.249,281.758v7.363c-4.654,0-10.128,0-10.128,2.3v26.743H312.4v-31.81C312.812,280.815,331.249,281.758,331.249,281.758Z" transform="translate(-95.092 -19.6)" fill="#fff"/>
      <path id="Path_230" data-name="Path 230" d="M270.113,310.924a23.4,23.4,0,0,0,8.718-1.885V316.4a25.985,25.985,0,0,1-10.6,1.83c-11.074,0-17.024-6.421-17.024-18.378s6-18.854,17.019-18.854a38.206,38.206,0,0,1,10.6,1.885v7.363a25.907,25.907,0,0,0-8.718-1.83c-6.009,0-9.661,1.83-9.661,11.074C260.035,309.039,264.217,310.924,270.113,310.924Z" transform="translate(-69.941 -19.315)" fill="#fff"/>
      <path id="Path_231" data-name="Path 231" d="M91.19,280.536a36.4,36.4,0,0,1,72.69-2.769v-2.3a41.44,41.44,0,1,0-41.469,41.411h2.763A36.571,36.571,0,0,1,91.19,280.536Z" transform="translate(0 0)" fill="#fff"/>
      <path id="Path_232" data-name="Path 232" d="M160.666,295.88a13.274,13.274,0,0,1-4.654-25.748,27.861,27.861,0,0,0-13.369-3.232,29.042,29.042,0,1,0,29.042,29.042h0a24.8,24.8,0,0,0-.412-5.538A11.734,11.734,0,0,1,160.666,295.88Z" transform="translate(-13.397 -13.518)" fill="#fff"/>
    </g>
  </g>
</svg>
