<svg xmlns="http://www.w3.org/2000/svg" xmlns:xlink="http://www.w3.org/1999/xlink" width="530" height="220" viewBox="0 0 530 220">
  <defs>
    <clipPath id="clip-path">
      <rect id="Rectangle_48" data-name="Rectangle 48" width="530" height="220" transform="translate(693 430)" fill="#fff"/>
    </clipPath>
    <linearGradient id="linear-gradient" x1="1" y1="1" x2="-0.012" y2="1" gradientUnits="objectBoundingBox">
      <stop offset="0" stop-color="#fff"/>
      <stop offset="0.01" stop-color="#fff"/>
      <stop offset="0.03" stop-color="#cbffff"/>
      <stop offset="0.11" stop-color="#43ffff"/>
      <stop offset="0.16" stop-color="#1ff"/>
      <stop offset="0.19" stop-color="#04ffff"/>
      <stop offset="0.22" stop-color="aqua"/>
      <stop offset="1" stop-color="blue" stop-opacity="0"/>
    </linearGradient>
  </defs>
  <g id="disneyplus" transform="translate(-693 -430)" clip-path="url(#clip-path)">
    <g id="Group_43" data-name="Group 43" transform="translate(777.609 441.879)">
      <g id="Disney-Plus">
        <g id="Group_44" data-name="Group 44">
          <path id="Path_39" data-name="Path 39" d="M288.445,438.748c-4.994,1.153-18.136,1.817-18.136,1.817l-1.665,5.24a74.517,74.517,0,0,1,11.339-.07s1.56-.175,1.734,1.782a30.377,30.377,0,0,1-.139,3.773s-.1,1.188-1.769,1.467c-1.8.314-14.148.768-14.148.768l-2.011,6.813s-.729,1.572.936,1.118c1.56-.419,14.495-2.865,16.194-2.515,1.8.454,3.814,2.865,3.225,5.1-.694,2.725-13.593,11.04-21.464,10.447,0,0-4.127.279-7.629-5.346-3.259-5.346,1.249-15.512,1.249-15.512s-2.047-4.752-.555-6.324a6.259,6.259,0,0,1,3.467-1.013l3.156-6.6a7.363,7.363,0,0,1-5.756-2.411c-2.012-2.551-2.15-3.7-.624-4.4,1.629-.8,16.644-3.564,26.978-3.214,0,0,3.607-.349,6.693,5.939C289.485,435.6,291.011,438.154,288.445,438.748Zm-38.872,25.365c-1.318,3.145-4.82,6.5-9.155,4.4-4.3-2.1-11.131-16.176-11.131-16.176s-2.6-5.241-3.086-5.136c0,0-.555-1.013-.9,4.716s.07,16.875-2.184,18.622a4.01,4.01,0,0,1-6.1-1.013c-1.213-2.027-1.734-6.848-1.075-15.3.8-8.455,2.74-17.469,5.236-20.3,2.5-2.8,4.508-.768,5.271-.034,0,0,3.329,3.04,8.843,11.983l.971,1.642s4.993,8.455,5.513,8.42c0,0,.416.385.763.105.52-.14.312-2.865.312-2.865s-1.04-9.189-5.583-24.771a7.265,7.265,0,0,1-.208-3.774c.451-1.851,2.289-.978,2.289-.978s7.074,3.564,10.472,15.163c3.358,11.7,1.07,22.151-.248,25.3Zm-34.746-29.8c-.589,1.188-.936,2.9-3.918,3.354,0,0-28.539,1.957-29.891,3.983,0,0-1.006,1.188.555,1.538,1.56.314,8.01,1.187,11.131,1.362,3.329.035,14.564.14,18.586,5.206,0,0,2.393,2.411,2.289,7.861-.1,5.59-1.075,7.547-3.225,9.573-2.254,1.887-21.6,10.621-34.087-2.8,0,0-5.756-6.464,1.976-11.355,0,0,5.583-3.388,19.765.594,0,0,4.3,1.572,4.092,3.144-.243,1.677-3.537,3.459-8.322,3.354a15.745,15.745,0,0,1-7.386-2.026c.624.244-4.993-2.725-6.727-.7-1.734,1.852-1.318,3.005.381,4.158,4.335,2.481,21.083,1.607,26.077-3.983,0,0,1.976-2.271-1.041-4.122-3.017-1.747-11.651-2.8-15.015-2.97-3.225-.175-15.223.035-16.956-3.179,0,0-1.734-2.166.173-8.315,2.011-6.429,15.985-8.909,22.019-9.468,0,0,16.61-.594,19.662,2.83a2.644,2.644,0,0,1-.138,1.954Zm-47.16,37.7c-2.012,1.5-6.277.839-7.49-.838-1.214-1.5-1.63-7.477-1.387-16.841.242-9.468.451-21.207,2.462-23.059,2.15-1.886,3.467-.245,4.3,1.048a9.793,9.793,0,0,1,2.219,5.625c.208,2.97.9,18.552.9,18.552s.9,14.041-1,15.509ZM172,421.768c-5.861,1.957-9.883,1.293-13.281-.175-1.491,2.621-2.358,3.424-3.5,3.6-1.665.175-3.155-2.516-3.433-3.389-.277-.664-1.075-1.782-.1-4.437a10.218,10.218,0,0,1-3.017-9.783c.832-3.144,6.45-15.093,23.545-16.491,0,0,8.357-.629,9.779,3.878h.242s8.115.035,7.941,7.3C190.068,409.575,181.156,418.658,172,421.768Zm-15.951-16.176c-1.734,2.8-1.8,4.472-1.006,5.625a41.264,41.264,0,0,1,10.889-11.46,12.351,12.351,0,0,0-9.881,5.835Zm23.615-4.682c-5.375.8-13.7,8.071-17.651,14.01,6.068,1.118,16.784.7,21.534-9.049-.033,0,2.253-6.044-3.881-4.961ZM325.583,457.2c-3.225,5.659-12.275,17.469-24.343,14.709a126.835,126.835,0,0,0-9.224,34.309s-.417,2.866-2.774,1.852c-2.323-.839-6.207-4.752-6.97-10.167-.832-7.128,2.323-19.181,8.738-32.982-1.872-3.074-3.155-7.476-2.046-13.73,0,0,1.63-11.6,13.177-22.081,0,0,1.387-1.223,2.184-.838.9.384.486,4.158-.242,5.974s-5.895,10.831-5.895,10.831-3.225,6.079-2.324,10.865c6.068-9.4,19.87-28.369,28.435-22.395,2.878,2.061,4.2,6.568,4.2,11.425a26.719,26.719,0,0,1-2.916,12.228Zm-2.5-14.884s-.485-3.739-4.092.385a89.027,89.027,0,0,0-13.281,18.832,21.749,21.749,0,0,0,10.715-4.473c2.257-2.031,7.494-7.481,6.662-14.749Zm-168.354,4.752c-.659,8.455-3.884,22.674-26.735,29.7-15.085,4.577-29.336,2.376-37.1.384-.173,3.11-.52,4.438-1,4.961-.659.664-5.583,3.529-8.288-.524-1.214-1.922-1.838-5.416-2.185-8.525-17.477-8.106-25.521-19.775-25.833-20.3a7.118,7.118,0,0,1-.382-9.712c3.745-4.647,15.986-9.293,27.012-11.181.382-9.5,1.491-16.665,2.809-19.95,1.6-3.808,3.606-.384,5.34,2.2,1.457,1.922,2.324,10.2,2.393,16.8,7.213-.35,11.478.175,19.523,1.642,10.472,1.922,17.477,7.3,16.852,13.416a9.672,9.672,0,0,1-8.01,8.665c-2.184.175-5.583-1.4-5.583-1.4-2.323-1.118-.173-2.1,2.636-3.319,3.052-1.5,2.358-3.04,2.358-3.04-1.144-3.354-14.737-5.7-28.261-5.7-.069,7.512.312,19.985.485,27.252A77.014,77.014,0,0,0,107.3,469.9s34.537-.978,35.577-23.2c1.075-22.256-34.434-43.6-60.683-50.381-26.215-6.917-41.056-2.1-42.339-1.432-1.388.7-.1.909-.1.909a24.59,24.59,0,0,1,3.884,1.048c2.6.839.589,2.2.589,2.2-4.473,1.432-9.5.524-10.472-1.538s.659-3.913,2.531-6.568c1.872-2.8,3.919-2.69,3.919-2.69,32.422-11.32,71.918,9.154,71.918,9.154,37,18.912,43.307,41.062,42.613,49.657ZM56.877,445.91c-3.676,1.817-1.144,4.437-1.144,4.437a58.509,58.509,0,0,0,23.476,15.058c.936-12.892.8-17.434.9-23.933C67.487,442.346,60.205,444.373,56.877,445.91Z" transform="translate(-33.458 -311.084)" fill="#fff"/>
          <path id="Path_40" data-name="Path 40" d="M536.223,458.079v4.612a1.8,1.8,0,0,1-1.8,1.816H512.609c0,1.153.034,2.167.034,3.11a168.933,168.933,0,0,1-.936,18.622,1.8,1.8,0,0,1-1.769,1.642h-4.716A1.681,1.681,0,0,1,503.558,486a165.642,165.642,0,0,0,.971-18.378c0-.978,0-1.992-.035-3.11H482.926a1.8,1.8,0,0,1-1.8-1.816v-4.612a1.8,1.8,0,0,1,1.8-1.816h21.256a162.108,162.108,0,0,0-2.809-22.081,1.615,1.615,0,0,1,.312-1.258,1.46,1.46,0,0,1,1.144-.559h5.1a1.67,1.67,0,0,1,1.63,1.363,178.489,178.489,0,0,1,2.774,22.535h22.089A1.842,1.842,0,0,1,536.223,458.079Z" transform="translate(-175.439 -325.909)" fill="#fff"/>
          <g id="Group_43-2" data-name="Group 43" transform="translate(63.134)">
            <path id="Path_41" data-name="Path 41" d="M134.614,381.227h-.035m-.242.035c-.1,0-.208-.035-.312-.035a.949.949,0,0,0,.312.035Zm0,0c-.1,0-.208-.035-.312-.035a.949.949,0,0,0,.312.035Z" transform="translate(-128.488 -309.954)" fill="none"/>
            <path id="Path_42" data-name="Path 42" d="M393.884,373.222a153.139,153.139,0,0,0-55.066-68.828,151.48,151.48,0,0,0-212.6,41.576,1.8,1.8,0,0,0-.208,1.572,1.7,1.7,0,0,0,1.11,1.118l3.953,1.363a2.588,2.588,0,0,0,.694.1,2.279,2.279,0,0,0,1.838-.978,145.579,145.579,0,0,1,50.766-46.223A143.271,143.271,0,0,1,333.443,310.3,145.223,145.223,0,0,1,385.7,374.2a2.081,2.081,0,0,0,1.907,1.293h4.716a1.584,1.584,0,0,0,1.353-.733,1.541,1.541,0,0,0,.208-1.538ZM131.765,348.939a1.023,1.023,0,0,1-.312-.069,1.022,1.022,0,0,0,.312.069Zm254.871,25.924a1.426,1.426,0,0,0,.312.175c-.1-.07-.208-.1-.312-.174Z" transform="translate(-125.916 -277.631)" fill="url(#linear-gradient)"/>
          </g>
        </g>
      </g>
    </g>
  </g>
</svg>
