<svg xmlns="http://www.w3.org/2000/svg" xmlns:xlink="http://www.w3.org/1999/xlink" width="530" height="220" viewBox="0 0 530 220">
  <defs>
    <clipPath id="clip-path">
      <rect id="Rectangle_48" data-name="Rectangle 48" width="530" height="220" transform="translate(693 430)" fill="#fff"/>
    </clipPath>
  </defs>
  <g id="hbomax" transform="translate(-693 -430)" clip-path="url(#clip-path)">
    <g id="Group_48" data-name="Group 48" transform="translate(740.253 501.879)">
      <g id="Group_47" data-name="Group 47">
        <path id="Path_46" data-name="Path 46" d="M189.7,75.872H169.594V46.982H156.585v28.89H135.927V1.338h20.612V29.167h13.009V1.338h20.108Zm92.251.323c20.612,0,37.423-17.26,37.423-38.305a37.5,37.5,0,0,0-71.41-16.384c0-9.23-9.161-20.26-19.788-20.26H193.825V75.872H225.8c13.009,0,22.17-11.215,22.17-21.045,2.882,6.092,13.143,21.368,33.984,21.368ZM223.232,45.92c2.977,0,5.359,2.907,5.359,6.23,0,3.461-2.382,6.415-5.359,6.415h-10.26V45.92Zm0-28.014c2.977,0,5.359,2.907,5.359,6.23s-2.382,6.23-5.359,6.23h-10.26V17.907ZM236.79,37.89c2.382-.138,6.275-2.908,7.741-4.569a32.609,32.609,0,0,0,0,10.338C242.882,41.213,239.172,38.351,236.79,37.89Zm26.384,0a18.886,18.886,0,1,1,5.449,13.4,18.8,18.8,0,0,1-5.449-13.4Zm18.78,14.953A14.907,14.907,0,1,0,267.113,37.89,14.907,14.907,0,0,0,281.954,52.843Z" transform="translate(-135.927)" fill="#fff"/>
        <path id="Path_47" data-name="Path 47" d="M1208.951,27.691C1208.539,9.6,1195.851.046,1180.277.046c-8.52,0-16.215,2.861-21.483,8.492-5.222-5.584-12.917-8.492-21.482-8.492-15.574,0-28.262,9.6-28.674,27.69V69.088a6.819,6.819,0,0,0,6.779,6.83h6.413a1.138,1.138,0,0,0,1.145-1.154V27.829c.275-8.907,6.55-13.615,14.291-13.615s14.017,4.707,14.291,13.615V69.042a6.819,6.819,0,0,0,6.779,6.83h6.413a1.138,1.138,0,0,0,1.145-1.154V27.783c.275-8.907,6.55-13.615,14.291-13.615s14.016,4.707,14.291,13.615V69a6.819,6.819,0,0,0,6.779,6.83h6.413a1.138,1.138,0,0,0,1.145-1.154l.137-46.982C1209,27.783,1208.951,27.737,1208.951,27.691ZM1353.7,1.246h-10.9a9.164,9.164,0,0,0-7.558,4.061l-12.047,18a3.963,3.963,0,0,1-6.6,0l-12.047-18a9.043,9.043,0,0,0-7.558-4.061h-10.9a.882.882,0,0,0-.733,1.338l21.528,32.167a6.866,6.866,0,0,1,0,7.661L1285.354,74.58a.862.862,0,0,0,.733,1.338h10.9a9.164,9.164,0,0,0,7.558-4.061l12.047-18a3.963,3.963,0,0,1,6.6,0l12.047,18a9.043,9.043,0,0,0,7.558,4.061h10.9a.882.882,0,0,0,.733-1.338L1332.9,42.459a6.865,6.865,0,0,1,0-7.661l21.529-32.167a.935.935,0,0,0-.729-1.385Zm-73.288,0H1274a6.884,6.884,0,0,0-6.688,5.4A33.23,33.23,0,0,0,1246.695,0c-18.826,0-34.079,13.2-34.079,38.121s15.253,38.121,34.079,38.121a33.829,33.829,0,0,0,20.521-6.507,6.84,6.84,0,0,0,6.779,6.23h6.413a1.138,1.138,0,0,0,1.145-1.154V2.4a1.168,1.168,0,0,0-1.146-1.154ZM1246.7,62.073c-11.222,0-20.338-8.261-20.338-23.906s9.115-23.906,20.338-23.906,20.337,8.261,20.337,23.906-9.119,23.906-20.341,23.906Z" transform="translate(-917.951)" fill="#fff"/>
      </g>
    </g>
  </g>
</svg>
