<svg xmlns="http://www.w3.org/2000/svg" xmlns:xlink="http://www.w3.org/1999/xlink" width="530" height="220" viewBox="0 0 530 220">
  <defs>
    <clipPath id="clip-path">
      <rect id="Rectangle_48" data-name="Rectangle 48" width="530" height="220" transform="translate(693 430)"/>
    </clipPath>
  </defs>
  <g id="hulu" transform="translate(-693 -430)" clip-path="url(#clip-path)">
    <path id="hulu-2" data-name="hulu" d="M343.6,36.7H316.443V82.365a7.817,7.817,0,0,1-2.052,5.252,7.681,7.681,0,0,1-5.048,2.063H293.549a7.041,7.041,0,0,1-7.264-7.315V36.7H259.124V84.752c.161,6.366,1.267,11.932,3.95,16.382a25.115,25.115,0,0,0,10.736,10.024,37.657,37.657,0,0,0,16.263,3.507h26.375v-.316a28.749,28.749,0,0,0,14.685-3.663,24.637,24.637,0,0,0,9.161-10.507,34.649,34.649,0,0,0,3.314-15.434l0-48.044ZM71.826,39.566A36.1,36.1,0,0,0,56.192,36.7H38.663l-6.79.8c-1.579.476-2.369.8-2.369.8V1.379H2.5V114.667h27V68.841a7.537,7.537,0,0,1,2.211-5.091,7.373,7.373,0,0,1,5.211-2.068H52.719a7.3,7.3,0,0,1,7.263,7.159v45.826h27V65.343c0-6.843-1.421-12.411-4.106-16.707A24.643,24.643,0,0,0,71.826,39.566Zm91.907,42.8a8.662,8.662,0,0,1-2.052,5.252,8.447,8.447,0,0,1-5.211,2.063H140.677a7.736,7.736,0,0,1-5.053-2.063,7.929,7.929,0,0,1-2.211-5.252V36.7h-27V84.752c0,6.366,1.264,11.932,3.79,16.382a24.291,24.291,0,0,0,10.738,10.024,37.148,37.148,0,0,0,16.264,3.507h26.531v-.316a27.759,27.759,0,0,0,14.528-3.663,26.084,26.084,0,0,0,9.32-10.507A39.544,39.544,0,0,0,190.9,84.745V36.7H163.734V82.366Zm47.693,32.3h27V1.379h-27V114.667Z" transform="translate(785.444 482.598)"/>
  </g>
</svg>
