<svg xmlns="http://www.w3.org/2000/svg" xmlns:xlink="http://www.w3.org/1999/xlink" width="530" height="220" viewBox="0 0 530 220">
  <defs>
    <clipPath id="clip-path">
      <rect id="Rectangle_48" data-name="Rectangle 48" width="530" height="220" transform="translate(693 430)" fill="#fff"/>
    </clipPath>
  </defs>
  <g id="netflix" transform="translate(-693 -430)" clip-path="url(#clip-path)">
    <path id="netflix-3" d="M434.289,59.475l24.532,65.436c-7.23-1.04-14.456-2.343-21.813-3.517l-13.82-36.156-14.2,33.171c-6.969-1.174-13.815-1.565-20.785-2.477L413.12,58.7,390.521.034h20.917l12.65,32.776L437.648.034h21.169ZM374,.034h-18.98v113.43c6.2.391,12.65.649,18.98,1.428ZM338.627,112.161c-17.3-1.17-34.6-2.206-52.287-2.6V.035H305.7V91.09c11.1.258,22.206,1.166,32.923,1.686ZM265.679,44.394V63.9H239.214V108.26h-19.1V.034h54.224v19.51H239.218V44.395h26.465Zm-78.108-24.85V109.3c-6.457,0-13.038,0-19.368.258V19.544H148.192V.034h59.516v19.51Zm-60.293,45.4c-8.519,0-18.592,0-25.821.4v29c11.361-.782,22.723-1.69,34.211-2.081v18.731l-53.575,4.3V.034h53.572v19.51H101.457V45.822c7.49,0,18.98-.391,25.821-.391V64.945ZM19.986,54.014v68.162c-6.965.782-13.167,1.694-19.748,2.735V.034H18.7l25.173,70.9V.034H63.242v116.81c-6.842,1.174-13.815,1.565-21.173,2.6Z" transform="translate(729.168 477.772)" fill="#fff"/>
  </g>
</svg>
