<svg xmlns="http://www.w3.org/2000/svg" xmlns:xlink="http://www.w3.org/1999/xlink" width="530" height="220" viewBox="0 0 530 220">
  <defs>
    <clipPath id="clip-path">
      <rect id="Rectangle_126" data-name="Rectangle 126" width="530" height="220" transform="translate(-18047 4943)" fill="#fff" stroke="#707070" stroke-width="1"/>
    </clipPath>
  </defs>
  <g id="paramount" transform="translate(18047 -4943)" clip-path="url(#clip-path)">
    <g id="Paramount__logo" data-name="Paramount+_logo" transform="translate(-18012.748 5000.458)">
      <path id="path2" d="M117.721,27.074C117.721,8.632,98.5,0,75.346,0,51.018,0,28.261,10.987,20.021,27.858A30.551,30.551,0,0,0,16.49,42.376,22.029,22.029,0,0,0,20.021,54.54c3.531,5.1,9.809,8.632,19.226,8.632,11.379,0,20.4-6.278,20.4-17.264a3.207,3.207,0,0,0-3.531-3.139,3.182,3.182,0,0,0-3.532,3.139c.392,8.632-4.708,15.3-13.733,15.3-10.2,0-14.518-8.632-14.518-17.657,0-18.834,14.125-31.39,29.036-36.883a58.359,58.359,0,0,1,21.58-3.925c16.872,0,30.607,6.278,30.607,23.548,0,14.518-12.163,26.678-26.678,27.858l.785-1.962c3.139-10.594,6.67-21.973,12.556-30.6a23.237,23.237,0,0,0,1.57-2.354l-.785-1.177-3.531,2.354C61.613,41.984,60.828,102.8,23.945,102.8a14.719,14.719,0,0,1-3.924-.392c-7.847-1.177-11.771-6.278-11.771-13.733,0-1.57.392-3.531.392-4.316a3.871,3.871,0,0,0-3.531-3.924H4.718C1.58,80.437.01,83.183.01,86.715c-.392,10.594,7.847,16.872,20.009,18.049h4.316c28.643,0,46.3-21.58,54.147-48.261A58.706,58.706,0,0,0,89.861,54.15C102.812,51.793,117.721,42.769,117.721,27.074Z" transform="translate(0 0)" fill="#fff"/>
      <path id="path4" d="M323.664,8.5h-10.2l-2.354,5.493-3.924,9.025h-4.708l-1.57,3.139h4.708l-5.493,12.556c-4.316,9.025-10.987,18.049-14.518,18.049a1.04,1.04,0,0,1-1.177-1.177A16.806,16.806,0,0,1,285.6,51.66c1.177-2.746,3.139-6.67,4.709-9.809,1.962-4.316,5.493-10.987,5.493-14.125s-1.962-5.886-6.278-5.886c-4.709,0-9.025,2.746-12.954,6.67l2.354-5.886h-9.417L261.67,40.282c-3.139,6.278-9.417,16.479-13.339,16.479a1.04,1.04,0,0,1-1.177-1.177,5.577,5.577,0,0,1,.785-2.354c.392-.785,5.1-11.771,5.1-11.771l8.632-19.226h-10.2l-8.24,18.834c-2.354,5.886-9.025,15.7-12.954,15.7-.785,0-1.177-.392-1.57-1.177v-.4a24.122,24.122,0,0,1,1.177-4.316l3.531-9.025,9.025-19.226h-10.2l-1.962,4.316c-1.57,3.139-3.924,6.278-8.24,6.278a3.065,3.065,0,0,1-3.139-1.57c-.785-6.67-4.708-9.809-10.987-9.809-8.632,0-14.518,5.1-18.441,10.987a59.039,59.039,0,0,0-6.278,13.339c-3.531,5.886-7.455,10.594-10.594,10.594-.785,0-1.177-.392-1.177-1.57s1.177-3.139,1.177-4.316l6.67-14.125c1.962-4.316,3.139-7.062,3.139-10.2s-1.962-5.1-5.493-5.1c-4.708,0-10.2,2.746-14.125,7.455V26.549c0-3.531-1.57-5.1-5.1-5.1-4.316,0-9.024,2.746-12.954,7.455l2.746-6.67h-9.417L130.21,39.89c-3.531,8.24-9.809,16.479-12.954,16.479-.785,0-1.177-.392-1.177-1.57,0-1.57,1.962-5.493,2.354-7.062l10.594-23.542c.785-1.962-4.316-2.746-10.594-2.746A27.715,27.715,0,0,0,100.383,28.9c-3.531,2.746-5.886,4.316-7.455,4.316-.785,0-.785-.392-.785-.785,0-1.57,3.531-5.493,3.531-8.632,0-1.57-.785-2.354-2.746-2.354-3.531,0-8.24,3.531-11.379,7.062l2.746-6.67h-9L67.445,39.5c-3.531,8.24-9.809,16.872-13.339,16.872-.785,0-1.177-.392-1.177-1.57a21.784,21.784,0,0,1,2.746-7.455L66.269,23.8c.785-1.962-4.316-2.746-10.594-2.746-9.417,0-18.441,6.278-23.15,12.954-5.493,7.057-9.025,14.508-9.025,20.4,0,4.708,2.354,7.847,7.455,7.847,5.493,0,10.2-4.316,12.954-7.847,0,.785-.392,1.177-.392,1.962,0,3.531,1.177,5.886,5.493,5.886,3.531,0,8.632-3.139,12.163-7.847l-3.145,7.063h9.809L77.647,39.5c3.139-7.062,6.67-10.987,7.847-10.987.392,0,.392,0,.392.392,0,.785-1.57,2.746-1.57,4.708s1.177,3.139,3.531,3.139c1.962,0,4.316-1.177,6.67-2.354-5.1,6.67-8.24,13.733-8.24,19.624,0,4.708,2.354,7.847,7.455,7.847,5.493,0,10.2-5.1,12.954-8.24v2.354c0,3.139,1.962,5.886,5.493,5.886,4.316,0,7.455-2.746,11.771-7.847l-3.139,7.062h10.2L140.431,39.9c3.924-9.025,9.417-14.125,12.163-14.125a1.04,1.04,0,0,1,1.177,1.177v.392a9.234,9.234,0,0,1-.785,3.139l-13.339,30.6h10.19l9.417-21.58c3.924-9.025,8.632-13.733,11.771-13.733,1.177,0,1.57.392,1.57,1.57a11.457,11.457,0,0,1-.785,3.531l-9.018,21.18a32.688,32.688,0,0,0-1.57,5.886c0,3.139,1.57,5.493,6.278,5.493,5.886,0,10.2-4.316,15.3-10.987v1.177c.392,5.493,3.531,9.809,11.379,9.809,9.417,0,16.872-6.278,21.188-16.479a37.708,37.708,0,0,0,3.139-11.379,12.13,12.13,0,0,0,3.139.785,7.91,7.91,0,0,0,4.316-1.177l-1.57,3.531c-1.962,3.924-3.924,8.24-5.493,11.771a18.816,18.816,0,0,0-1.962,6.67c0,3.531,1.962,6.278,6.278,6.278s9.809-3.924,13.733-9.417h0a10.863,10.863,0,0,1,.392,3.531c0,3.139.785,5.886,5.1,5.886,4.709,0,8.632-3.531,12.556-7.847l-3.139,7.062h10.207l8.24-18.441c4.708-10.594,9.417-16.872,13.733-16.872.785,0,1.177.392,1.57,1.177V28.9c0,1.962-2.354,6.67-4.709,11.379-1.962,4.316-3.531,7.847-4.708,10.2a23.817,23.817,0,0,0-1.962,7.062c0,3.139,1.962,5.493,5.886,5.493,5.886,0,11.771-5.886,15.3-10.2a17.771,17.771,0,0,0-1.177,6.278c0,5.886,3.531,9.025,8.632,9.025A14.813,14.813,0,0,0,311.9,65a42.083,42.083,0,0,0,9.809-10.594l-1.962-1.57A33.845,33.845,0,0,1,311.9,61.47a8.264,8.264,0,0,1-5.1,1.962c-1.962,0-3.531-1.177-3.531-3.924s1.177-6.278,3.139-11.379c0,0,2.746-6.278,5.493-12.163,2.354-5.1,4.316-9.809,4.708-10.987h6.67l1.177-3.139h-6.67ZM35.271,57.154c-1.57,0-2.354-.392-2.354-2.354,0-5.1,4.316-13.733,9.417-20.8,3.531-4.708,8.24-8.632,13.339-8.632L49.4,39.89C44.3,50.484,39.2,57.154,35.271,57.154Zm63.172,0c-1.57,0-2.354-.392-2.354-2.354,0-5.1,4.316-13.733,9.417-20.8,3.531-4.708,8.24-8.632,13.339-8.632L112.569,39.89c-5.1,10.987-10.2,17.264-14.125,17.264ZM210.661,29.3c-.392,5.493-5.1,18.834-10.594,26.678-2.354,3.139-4.316,4.316-5.886,4.316-2.354,0-3.139-1.962-2.746-4.708.392-5.1,4.708-16.479,10.2-24.72,2.746-3.531,4.316-5.1,6.278-5.1,2.354-.389,2.746,1.181,2.746,3.535Z" transform="translate(68.717 24.852)" fill="#fff"/>
      <path id="path6" d="M140.053,28.18,149.47,6.6H138.483l-9.417,21.58H105.524L101.6,37.2h23.542l-9.417,21.58h10.987l9.417-21.58h23.542L163.6,28.18Z" transform="translate(297.059 19.296)" fill="#fff"/>
    </g>
  </g>
</svg>
