<svg xmlns="http://www.w3.org/2000/svg" xmlns:xlink="http://www.w3.org/1999/xlink" width="530" height="220" viewBox="0 0 530 220">
  <defs>
    <clipPath id="clip-path">
      <rect id="Rectangle_126" data-name="Rectangle 126" width="530" height="220" transform="translate(-18047 4943)" fill="#fff" stroke="#707070" stroke-width="1"/>
    </clipPath>
  </defs>
  <g id="paramount" transform="translate(18047 -4943)" clip-path="url(#clip-path)">
    <g id="Paramount__logo" data-name="Paramount+_logo" transform="translate(-17961.996 5012)">
      <path id="path2" d="M91.781,21.108C91.781,6.73,76.792,0,58.743,0,39.776,0,22.033,8.566,15.609,21.72a23.819,23.819,0,0,0-2.753,11.319,17.175,17.175,0,0,0,2.753,9.483c2.753,3.977,7.648,6.73,14.99,6.73,8.872,0,15.908-4.895,15.908-13.46a2.5,2.5,0,0,0-2.753-2.447A2.481,2.481,0,0,0,41,35.792c.306,6.73-3.671,11.931-10.707,11.931-7.954,0-11.319-6.73-11.319-13.766,0-14.684,11.013-24.473,22.638-28.756A45.5,45.5,0,0,1,58.437,2.141C71.591,2.141,82.3,7.036,82.3,20.5c0,11.319-9.483,20.8-20.8,21.72l.612-1.53c2.447-8.26,5.2-17.131,9.789-23.861a18.117,18.117,0,0,0,1.224-1.835l-.612-.918-2.753,1.835C48.036,32.733,47.424,80.15,18.668,80.15a11.476,11.476,0,0,1-3.059-.306c-6.118-.918-9.177-4.895-9.177-10.707,0-1.224.306-2.753.306-3.365a3.018,3.018,0,0,0-2.753-3.059H3.678c-2.447,0-3.671,2.141-3.671,4.895-.306,8.26,6.118,13.154,15.6,14.072h3.365c22.332,0,36.1-16.825,42.216-37.627a45.77,45.77,0,0,0,8.872-1.835C80.157,40.381,91.781,33.345,91.781,21.108Z" transform="translate(0)" fill="#fff"/>
      <path id="path4" d="M257.524,8.5h-7.954l-1.835,4.283-3.059,7.036h-3.671l-1.224,2.447h3.671l-4.283,9.789c-3.365,7.036-8.566,14.072-11.319,14.072a.811.811,0,0,1-.918-.918,13.105,13.105,0,0,1,.918-3.059c.918-2.141,2.447-5.2,3.671-7.648,1.53-3.365,4.283-8.566,4.283-11.013s-1.53-4.589-4.895-4.589c-3.671,0-7.036,2.141-10.1,5.2l1.835-4.589h-7.342L209.19,33.279c-2.447,4.895-7.342,12.848-10.4,12.848a.811.811,0,0,1-.918-.918,4.348,4.348,0,0,1,.612-1.835c.306-.612,3.977-9.177,3.977-9.177l6.73-14.99h-7.954l-6.424,14.684c-1.835,4.589-7.036,12.237-10.1,12.237-.612,0-.918-.306-1.224-.918V44.9a18.809,18.809,0,0,1,.918-3.365l2.753-7.036,7.036-14.99h-7.954l-1.53,3.365c-1.224,2.447-3.059,4.895-6.424,4.895a2.39,2.39,0,0,1-2.447-1.224c-.612-5.2-3.671-7.648-8.566-7.648-6.73,0-11.319,3.977-14.378,8.566a46.03,46.03,0,0,0-4.895,10.4c-2.753,4.589-5.812,8.26-8.26,8.26-.612,0-.918-.306-.918-1.224s.918-2.447.918-3.365l5.2-11.013c1.53-3.365,2.447-5.506,2.447-7.954s-1.53-3.977-4.283-3.977c-3.671,0-7.954,2.141-11.013,5.812V22.572c0-2.753-1.224-3.977-3.977-3.977-3.365,0-7.036,2.141-10.1,5.812l2.141-5.2h-7.342l-6.118,13.766c-2.753,6.424-7.648,12.848-10.1,12.848-.612,0-.918-.306-.918-1.224,0-1.224,1.53-4.283,1.835-5.506l8.26-18.355c.612-1.53-3.365-2.141-8.26-2.141a21.608,21.608,0,0,0-14.072,5.812c-2.753,2.141-4.589,3.365-5.812,3.365-.612,0-.612-.306-.612-.612,0-1.224,2.753-4.283,2.753-6.73,0-1.224-.612-1.835-2.141-1.835-2.753,0-6.424,2.753-8.872,5.506l2.141-5.2H63.881L57.762,32.667c-2.753,6.424-7.648,13.154-10.4,13.154-.612,0-.918-.306-.918-1.224a16.984,16.984,0,0,1,2.141-5.812l8.26-18.355c.612-1.53-3.365-2.141-8.26-2.141-7.342,0-14.378,4.895-18.049,10.1C26.253,33.891,23.5,39.7,23.5,44.292c0,3.671,1.835,6.118,5.812,6.118,4.283,0,7.954-3.365,10.1-6.118,0,.612-.306.918-.306,1.53,0,2.753.918,4.589,4.283,4.589,2.753,0,6.73-2.447,9.483-6.118L50.42,49.8h7.648l7.648-17.131c2.447-5.506,5.2-8.566,6.118-8.566.306,0,.306,0,.306.306,0,.612-1.224,2.141-1.224,3.671s.918,2.447,2.753,2.447c1.53,0,3.365-.918,5.2-1.835-3.977,5.2-6.424,10.707-6.424,15.3,0,3.671,1.835,6.118,5.812,6.118,4.283,0,7.954-3.977,10.1-6.424v1.835c0,2.447,1.53,4.589,4.283,4.589,3.365,0,5.812-2.141,9.177-6.118l-2.447,5.506h7.954l7.342-16.519c3.059-7.036,7.342-11.013,9.483-11.013a.811.811,0,0,1,.918.918v.306a7.2,7.2,0,0,1-.612,2.447l-10.4,23.861H122l7.342-16.825c3.059-7.036,6.73-10.707,9.177-10.707.918,0,1.224.306,1.224,1.224a8.932,8.932,0,0,1-.612,2.753L132.1,42.456a25.487,25.487,0,0,0-1.224,4.589c0,2.447,1.224,4.283,4.895,4.283,4.589,0,7.954-3.365,11.931-8.566v.918c.306,4.283,2.753,7.648,8.872,7.648,7.342,0,13.154-4.895,16.519-12.848a29.4,29.4,0,0,0,2.447-8.872,9.457,9.457,0,0,0,2.447.612,6.167,6.167,0,0,0,3.365-.918l-1.224,2.753c-1.53,3.059-3.059,6.424-4.283,9.177a14.67,14.67,0,0,0-1.53,5.2c0,2.753,1.53,4.895,4.895,4.895s7.648-3.059,10.707-7.342h0a8.469,8.469,0,0,1,.306,2.753c0,2.447.612,4.589,3.977,4.589,3.671,0,6.73-2.753,9.789-6.118l-2.447,5.506H209.5l6.424-14.378c3.671-8.26,7.342-13.154,10.707-13.154.612,0,.918.306,1.224.918v.306c0,1.53-1.835,5.2-3.671,8.872-1.53,3.365-2.753,6.118-3.671,7.954a18.569,18.569,0,0,0-1.53,5.506c0,2.447,1.53,4.283,4.589,4.283,4.589,0,9.177-4.589,11.931-7.954a13.855,13.855,0,0,0-.918,4.895c0,4.589,2.753,7.036,6.73,7.036a11.549,11.549,0,0,0,7.036-2.447,32.81,32.81,0,0,0,7.648-8.26l-1.53-1.224a26.387,26.387,0,0,1-6.118,6.73,6.443,6.443,0,0,1-3.977,1.53c-1.53,0-2.753-.918-2.753-3.059s.918-4.895,2.447-8.872c0,0,2.141-4.895,4.283-9.483,1.835-3.977,3.365-7.648,3.671-8.566h5.2l.918-2.447h-5.2ZM32.677,46.433c-1.224,0-1.835-.306-1.835-1.835,0-3.977,3.365-10.707,7.342-16.213,2.753-3.671,6.424-6.73,10.4-6.73L43.69,32.973C39.713,41.233,35.737,46.433,32.677,46.433Zm49.252,0c-1.224,0-1.835-.306-1.835-1.835,0-3.977,3.365-10.707,7.342-16.213,2.753-3.671,6.424-6.73,10.4-6.73L92.943,32.973C88.966,41.539,84.989,46.433,81.93,46.433Zm87.492-21.72c-.306,4.283-3.977,14.684-8.26,20.8-1.835,2.447-3.365,3.365-4.589,3.365-1.835,0-2.447-1.53-2.141-3.671.306-3.977,3.671-12.848,7.954-19.273,2.141-2.753,3.365-3.977,4.895-3.977C169.115,21.654,169.421,22.878,169.421,24.713Z" transform="translate(48.397 17.503)" fill="#fff"/>
      <path id="path6" d="M131.58,23.425,138.922,6.6h-8.566l-7.342,16.825H104.659L101.6,30.461h18.355l-7.342,16.825h8.566l7.342-16.825h18.355l3.059-7.036Z" transform="translate(209.216 13.59)" fill="#fff"/>
    </g>
  </g>
</svg>
