<svg xmlns="http://www.w3.org/2000/svg" xmlns:xlink="http://www.w3.org/1999/xlink" width="530" height="220" viewBox="0 0 530 220">
  <defs>
    <clipPath id="clip-path">
      <rect id="Rectangle_48" data-name="Rectangle 48" width="530" height="220" transform="translate(693 430)" fill="#fff"/>
    </clipPath>
  </defs>
  <g id="plex" transform="translate(-693 -430)" clip-path="url(#clip-path)">
    <g id="Plex_logo_2022_1_" data-name="Plex_logo_2022 (1)" transform="translate(804.294 468.623)">
      <path id="path4" d="M50.474,82.432c-12.255,0-20.148,3.558-26.795,11.929V85.153H0V198.582A6.749,6.749,0,0,0,1.662,199c1.662.419,10.386,2.3,16.825-3.139,5.608-4.813,6.854-10.464,6.854-16.742V162.8c6.854,7.325,14.54,10.464,25.341,10.464,23.264,0,41.127-19.044,41.127-44.367,0-27.416-17.24-46.46-41.335-46.46ZM45.9,151.7c-13.086,0-23.471-10.882-23.471-24.067,0-12.975,12.255-23.439,23.471-23.439,13.294,0,23.471,10.255,23.471,23.648A23.452,23.452,0,0,1,45.9,151.7Z" transform="translate(0 -56.9)" fill="#fff"/>
      <path id="path6" d="M352.888,69.271c0,9.836,1.039,21.765,10.593,34.74a8.34,8.34,0,0,1,.623.837c-3.946,6.7-8.724,11.3-15.163,11.3-4.985,0-9.97-2.721-14.124-7.325a27.657,27.657,0,0,1-6.439-18.417V0h24.3Z" transform="translate(-227.431)" fill="#fff"/>
      <path id="polygon8" d="M732.043,133.909,703.379,91.216h29.495l28.456,42.693-28.456,42.484H703.379Z" transform="translate(-487.151 -62.964)" fill="#ebaf00"/>
      <path id="polygon10" d="M884.135,129.1l25.548-37.879H880.188l-10.593,15.7Z" transform="translate(-602.271 -62.964)" fill="#fff"/>
      <path id="path12" d="M869.595,266.778l4.985,6.906c4.777,7.534,11.009,11.3,18.279,11.3,7.685-.209,13.086-6.906,15.163-9.418a98.992,98.992,0,0,1-8.516-9c-6.439-7.534-14.955-21.346-15.163-21.974Z" transform="translate(-602.27 -168.836)" fill="#fff"/>
      <path id="path16" d="M500.934,145.844c-4.985,4.6-8.308,7.115-15.163,7.115-12.255,0-19.317-8.79-20.356-18.417h65.014a18.253,18.253,0,0,0,.623-5.651c0-26.578-19.317-46.46-44.658-46.46-24.094,0-43.827,20.3-43.827,45.623,0,25.113,19.732,44.995,44.45,44.995,17.24,0,32.2-9.836,40.3-27.206ZM486.6,102.523c10.8,0,18.9,7.115,20.771,16.533H466.246C468.324,109.22,476.009,102.523,486.6,102.523Z" transform="translate(-306.517 -56.9)" fill="#fff"/>
    </g>
  </g>
</svg>
