<svg xmlns="http://www.w3.org/2000/svg" xmlns:xlink="http://www.w3.org/1999/xlink" width="530" height="220" viewBox="0 0 530 220">
  <defs>
    <clipPath id="clip-path">
      <rect id="Rectangle_48" data-name="Rectangle 48" width="530" height="220" transform="translate(693 430)" fill="#fff"/>
    </clipPath>
  </defs>
  <g id="primevideo" transform="translate(-693 -430)" clip-path="url(#clip-path)">
    <g id="amazon-prime-video-logo" transform="translate(715.828 465)">
      <path id="Path_28" data-name="Path 28" d="M396.5,245.841V245.6a1.147,1.147,0,0,1,1.028-.427c1.754-.061,3.448-.061,5.2,0a1.322,1.322,0,0,1,1.028.427v.244Z" transform="translate(-156.655 -95.759)" fill="#fff"/>
      <path id="Path_29" data-name="Path 29" d="M323.2,163.008q-3.63-.091-7.259,0c-3.327-.183-6.654-.3-9.981-.549a172.111,172.111,0,0,1-26.192-4.023c-29.7-6.948-55.772-20.9-78.517-41.2-2.117-1.889-4.113-3.84-6.17-5.79a4.488,4.488,0,0,1-1.149-1.646,2.257,2.257,0,0,1,.423-2.438,2.128,2.128,0,0,1,2.42-.549,12.678,12.678,0,0,1,1.573.792,234.392,234.392,0,0,0,70.29,29.255,254.54,254.54,0,0,0,25.225,4.571,230.406,230.406,0,0,0,36.657,1.646,192.86,192.86,0,0,0,19.659-1.646,236.177,236.177,0,0,0,44.884-10.3,210.743,210.743,0,0,0,22.5-8.9,5.02,5.02,0,0,1,3.629-.488,3.787,3.787,0,0,1,2.722,4.571,4.253,4.253,0,0,1-.3.792,6.665,6.665,0,0,1-2,2.316,134.53,134.53,0,0,1-22.381,14.323A176.376,176.376,0,0,1,351.871,159.9a206.229,206.229,0,0,1-28.672,3.108ZM233.613,39.469c1.512-.914,3.085-1.889,4.718-2.743a26.868,26.868,0,0,1,13.731-3.047c3.448.183,6.593,1.158,9.013,3.718a13,13,0,0,1,3.387,8.472c.061.67.061,1.341.061,2.072v31.57c0,2.743-.363,3.108-3.085,3.108h-7.38a11.57,11.57,0,0,1-1.452-.061,1.673,1.673,0,0,1-1.452-1.4,11.227,11.227,0,0,1-.121-2.011V50.927a10.382,10.382,0,0,0-.363-3.352,4.532,4.532,0,0,0-4.113-3.352,21.216,21.216,0,0,0-10.4,2.011,1,1,0,0,0-.726,1.1V79.389a8.69,8.69,0,0,1-.121,1.767,1.453,1.453,0,0,1-1.512,1.463c-.907.061-1.815.061-2.783.061H224.6c-2.238,0-2.722-.549-2.722-2.8V51.048a14.072,14.072,0,0,0-.3-3.169,4.579,4.579,0,0,0-4.234-3.657,21.156,21.156,0,0,0-10.586,2.072.974.974,0,0,0-.665,1.158V79.937c0,2.255-.484,2.743-2.722,2.743h-8.106c-2.117,0-2.662-.609-2.662-2.682V37.7a6.054,6.054,0,0,1,.181-1.463,1.765,1.765,0,0,1,1.694-1.158h7.561a2.189,2.189,0,0,1,2.117,1.707c.3.853.484,1.646.786,2.56.6,0,.968-.427,1.391-.67A31.29,31.29,0,0,1,217.1,34.1a22.743,22.743,0,0,1,9.074,0,11.334,11.334,0,0,1,7.017,4.754,2.645,2.645,0,0,0,.363.427c-.061.061,0,.061.061.183Z" transform="translate(-76.095 -13.169)" fill="#fff"/>
      <path id="Path_30" data-name="Path 30" d="M452.146,70.683c.363-1.219.726-2.377,1.089-3.6,2.783-9.447,5.565-18.833,8.348-28.279l.363-1.1a2.47,2.47,0,0,1,2.42-1.767h9.2c2.3,0,2.783.67,2,2.865l-3.634,9.7c-4.053,10.6-8.106,21.271-12.159,31.875-.121.366-.3.731-.423,1.1a2.947,2.947,0,0,1-3.025,2.011q-3.992-.091-7.985,0a3.423,3.423,0,0,1-3.629-2.5c-1.512-4.023-3.085-8.106-4.6-12.128-3.629-9.569-7.319-19.137-10.949-28.767a10.946,10.946,0,0,1-.786-2.377c-.181-1.219.242-1.828,1.452-1.828,3.448-.061,6.9,0,10.283,0,1.452,0,2.117.975,2.48,2.255.665,2.316,1.331,4.693,2.057,7.009,2.48,8.472,4.9,17,7.38,25.476C451.965,70.683,452.025,70.683,452.146,70.683Z" transform="translate(-169.233 -14.033)" fill="#fff"/>
      <path id="Path_31" data-name="Path 31" d="M104.263,42.362a1.8,1.8,0,0,0,1.028-.731,41.907,41.907,0,0,1,3.448-3.108,16.01,16.01,0,0,1,11.009-3.352c1.573.061,2.117.549,2.238,2.072.121,2.072.06,4.205.06,6.278a11.545,11.545,0,0,1-.121,2.5c-.242,1.1-.665,1.524-1.754,1.646a16.859,16.859,0,0,1-2.48-.061,28.78,28.78,0,0,0-11.8,1.707c-.847.3-.847.914-.847,1.585V80.149a13.882,13.882,0,0,1-.06,1.585,1.465,1.465,0,0,1-1.452,1.4,9.727,9.727,0,0,1-1.331.061H94.343a9.727,9.727,0,0,1-1.331-.061A1.626,1.626,0,0,1,91.56,81.61a11.833,11.833,0,0,1-.06-1.463V38.705c0-2.8.3-3.108,3.085-3.108h5.807a2.4,2.4,0,0,1,2.722,2.072C103.537,39.193,103.9,40.716,104.263,42.362Zm282.974,61.8a51.181,51.181,0,0,1,11.8,1.4,19.493,19.493,0,0,1,3.146,1.158,4.107,4.107,0,0,1,2.48,3.352,25.2,25.2,0,0,1,.181,5.241,67.561,67.561,0,0,1-9.316,29.437,40.592,40.592,0,0,1-7.017,8.715,4.986,4.986,0,0,1-1.936,1.219,1.418,1.418,0,0,1-1.936-1.463,6.669,6.669,0,0,1,.423-1.828c2.117-5.729,4.174-11.4,5.807-17.309a60.876,60.876,0,0,0,2.057-9.873,18.471,18.471,0,0,0,.061-3.657A4.751,4.751,0,0,0,389.6,116.1a23.3,23.3,0,0,0-5.807-1.1,94.793,94.793,0,0,0-16.635.731l-7.319.914a1.8,1.8,0,0,1-1.936-.731,2.072,2.072,0,0,1,.181-2.194,6.089,6.089,0,0,1,1.815-1.707,41.375,41.375,0,0,1,14.82-6.46,71.623,71.623,0,0,1,12.519-1.395Z" transform="translate(-36.151 -13.747)" fill="#fff"/>
      <path id="Path_32" data-name="Path 32" d="M529.65,59.769V81.71a1.737,1.737,0,0,1-1.875,1.828c-3.267.061-6.473.061-9.739,0a1.691,1.691,0,0,1-1.875-1.767,7.426,7.426,0,0,1-.061-1.158V38.438c.061-1.889.544-2.438,2.42-2.438h8.711c1.875,0,2.42.549,2.42,2.438Z" transform="translate(-203.909 -14.089)" fill="#fff"/>
      <path id="Path_33" data-name="Path 33" d="M150.918,45.62V23.984c.061-1.463.6-2.011,2.057-2.072q4.718-.091,9.437,0c1.391,0,1.815.427,1.936,1.828a13.88,13.88,0,0,1,.06,1.585v40.59c0,.67-.06,1.341-.121,2.011a1.511,1.511,0,0,1-1.452,1.4,5.826,5.826,0,0,1-1.028.061H153.4a3.966,3.966,0,0,1-.847-.061,1.756,1.756,0,0,1-1.633-1.585,11.834,11.834,0,0,1-.06-1.463c.06-6.765.06-13.713.06-20.661ZM157.935.093a7.5,7.5,0,0,1,2.843.427c3.266,1.1,4.96,3.962,4.658,7.679a6.785,6.785,0,0,1-5.747,6.217,11.321,11.321,0,0,1-4.053,0c-3.448-.67-5.989-3.23-5.747-7.618C150.253,2.469,153.1.093,157.935.093Z" transform="translate(-59.214 -0.061)" fill="#fff"/>
      <path id="Path_34" data-name="Path 34" d="M522.315.08a7.266,7.266,0,0,1,3.569.609A6.406,6.406,0,0,1,530,6.358c.484,5.546-3.206,8.35-8.106,8.228a11.164,11.164,0,0,1-2-.244c-3.75-.914-5.686-3.84-5.323-8.045A6.8,6.8,0,0,1,521.044.141a4.45,4.45,0,0,1,1.27-.061Z" transform="translate(-203.288 -0.049)" fill="#fff"/>
      <path id="Path_35" data-name="Path 35" d="M46.4,53.709a27.923,27.923,0,0,0-2.359-9.142c-2.48-5.241-6.291-9.081-12.1-10.422a21.253,21.253,0,0,0-18.087,4.083,4.845,4.845,0,0,1-1.27.914c-.121-.061-.242-.122-.242-.183-.181-.609-.3-1.219-.484-1.828-.484-1.524-1.089-2.072-2.722-2.072-1.815,0-3.69.061-5.5,0A4.2,4.2,0,0,0,0,36.279C0,57.61,0,79,.06,100.273a3.361,3.361,0,0,0,3.387,1.463c2.178-.061,4.355,0,6.533,0,3.811,0,3.811,0,3.811-3.779V80.587c0-.427-.181-.914.242-1.28a20.235,20.235,0,0,0,10.525,4.2,17.659,17.659,0,0,0,14.215-4.449,22.575,22.575,0,0,0,6.291-10.178A37.948,37.948,0,0,0,46.4,53.709ZM31.939,66.325A9.407,9.407,0,0,1,29.156,71.2a8.575,8.575,0,0,1-5.565,2.133,16.5,16.5,0,0,1-8.832-1.95,1.73,1.73,0,0,1-1.028-1.707V58.646c0-3.657.06-7.314,0-10.97a1.852,1.852,0,0,1,1.21-1.889,16.249,16.249,0,0,1,10.4-1.585,7.4,7.4,0,0,1,5.747,4.388,17.132,17.132,0,0,1,1.573,6.217,30.679,30.679,0,0,1-.726,11.519Z" transform="translate(0 -13.149)" fill="#fff"/>
      <path id="Path_36" data-name="Path 36" d="M702.38,50.411Zm.06-8.167v.244a.882.882,0,0,1-.242-.914v-.488a.06.06,0,0,1,.06-.061h-.06v-.609h.121c0-.061-.06-.061-.06-.122a21.272,21.272,0,0,0-.665-3.413c-2.238-8.045-7.259-13.347-15.425-15.42a29.506,29.506,0,0,0-11.554-.427c-8.166,1.219-14.034,5.607-16.877,13.408a32.834,32.834,0,0,0,.06,23.038,19.335,19.335,0,0,0,14.215,12.8,29.743,29.743,0,0,0,11.372.609c12.7-1.524,17.966-11.214,18.813-19.625h-.06v-.853c-.06-.366-.121-.67.242-.914v.122a.462.462,0,0,1,.121-.244V42.366c0-.061-.06-.061-.06-.122Zm-14.518,11.58a11.2,11.2,0,0,1-1.694,3.535,7.819,7.819,0,0,1-5.747,3.291,10.925,10.925,0,0,1-3.448-.122,7.785,7.785,0,0,1-5.686-4.571,17.54,17.54,0,0,1-1.633-6.034A33.609,33.609,0,0,1,670.2,39.2a13.712,13.712,0,0,1,1.633-4.023A7.875,7.875,0,0,1,678,31.4a10.924,10.924,0,0,1,3.448.122,7.8,7.8,0,0,1,5.5,4.327,18.1,18.1,0,0,1,1.754,6.887,29.871,29.871,0,0,1,.06,3.291,22.435,22.435,0,0,1-.847,7.8ZM596.4.8h-8.408c-2.3,0-2.722.427-2.722,2.743V23.289c0,.427.181.853-.121,1.28-.544-.061-.847-.427-1.27-.67-6.291-3.718-12.884-4.388-19.538-1.28-4.658,2.194-7.561,6.156-9.437,10.849a34.849,34.849,0,0,0-2.117,14.079,29.209,29.209,0,0,0,3.024,12.982c2.3,4.449,5.626,7.862,10.465,9.325a19.467,19.467,0,0,0,18.389-3.169c.423-.244.665-.67,1.21-.792a8.729,8.729,0,0,1,.665,2.133,2.148,2.148,0,0,0,2.117,1.646h1.452c2.178,0,4.295.061,6.412,0,1.694,0,2.178-.549,2.238-2.316V3.116C598.7,1.227,598.216.8,596.4.8ZM585.33,45.657V56.749a1.6,1.6,0,0,1-.968,1.707,14.818,14.818,0,0,1-9.5,1.828,8.285,8.285,0,0,1-6.473-4.51,16.994,16.994,0,0,1-1.694-6.156,31.731,31.731,0,0,1,.726-11.458,14.042,14.042,0,0,1,1.21-2.986,7.8,7.8,0,0,1,6.351-4.083,18.143,18.143,0,0,1,9.316,1.646,1.68,1.68,0,0,1,1.089,1.767c-.116,3.778-.056,7.435-.056,11.153Z" transform="translate(-218.396 -0.342)" fill="#fff"/>
      <path id="Path_37" data-name="Path 37" d="M338.656,62.873a39.97,39.97,0,0,0,13.731.183,22.03,22.03,0,0,0,7.561-2.438,11.32,11.32,0,0,0,5.565-6.826c2.117-7.679-1.149-15.42-9.074-18.284A26.876,26.876,0,0,0,344.4,34.35c-9.557,1.1-15.788,6.4-18.631,15.6a33.888,33.888,0,0,0-.121,19.015c2.117,8.106,7.44,12.921,15.486,14.627a38.724,38.724,0,0,0,20.99-1.828,2.792,2.792,0,0,0,2.057-2.986c-.061-1.463,0-2.986,0-4.51,0-1.828-.726-2.377-2.48-1.95s-3.448.792-5.2,1.158a29.751,29.751,0,0,1-11.372.122c-5.142-1.036-8.469-5.485-8.166-10.97A16.192,16.192,0,0,1,338.656,62.873Zm-1.512-9.325a16.647,16.647,0,0,1,1.149-4.205c1.815-4.449,5.626-5.973,9.5-5.729a9.811,9.811,0,0,1,3.206.731,4.646,4.646,0,0,1,2.783,3.84,7.043,7.043,0,0,1-.181,3.169c-.726,2.194-2.48,3.108-4.6,3.535a12.136,12.136,0,0,1-3.932.3,46.923,46.923,0,0,1-7.138-.549c-.907-.122-.907-.122-.786-1.1Z" transform="translate(-128.149 -13.353)" fill="#fff"/>
      <path id="Path_38" data-name="Path 38" d="M668.825,63.54a24.644,24.644,0,0,0,10.162-2.621,11.324,11.324,0,0,0,6.11-8.106,16.684,16.684,0,0,0-.06-6.7c-1.27-5.485-4.718-8.9-9.92-10.666a26.584,26.584,0,0,0-9.013-1.158c-10.162.244-17.905,5.424-21.051,15.663a34.082,34.082,0,0,0,.242,20.417c2.117,6.948,6.956,11.153,13.852,13.043a32.582,32.582,0,0,0,9.073.914,38.2,38.2,0,0,0,13.005-2.5c1.754-.67,2.178-1.28,2.178-3.169v-4.39c-.06-1.767-.786-2.377-2.541-1.95-1.331.366-2.6.67-3.932.975a30.374,30.374,0,0,1-12.4.427,9.5,9.5,0,0,1-7.985-7.314,25.139,25.139,0,0,1-.665-3.718,1.909,1.909,0,0,1,.847.122A47.375,47.375,0,0,0,668.825,63.54Zm-12.643-9.752a15.188,15.188,0,0,1,2.42-6.643c2.238-2.986,5.323-3.84,8.832-3.474.3,0,.545.122.847.122,4.234.67,5.263,4.083,4.476,7.375-.6,2.438-2.6,3.352-4.839,3.779a15.348,15.348,0,0,1-3.75.3,58.3,58.3,0,0,1-7.319-.609c-.544-.061-.786-.3-.666-.853Z" transform="translate(-254.284 -13.41)" fill="#fff"/>
    </g>
  </g>
</svg>
