<svg xmlns="http://www.w3.org/2000/svg" xmlns:xlink="http://www.w3.org/1999/xlink" width="530" height="220" viewBox="0 0 530 220">
  <defs>
    <clipPath id="clip-path">
      <rect id="Rectangle_122" data-name="Rectangle 122" width="530" height="220" transform="translate(-17085 4941)" fill="#fff" stroke="#707070" stroke-width="1"/>
    </clipPath>
  </defs>
  <g id="soundcloud" transform="translate(17085 -4941)" clip-path="url(#clip-path)">
    <path id="SoundCloud_icon" data-name="SoundCloud icon" d="M62.208,146.6a3.451,3.451,0,0,1-.773-2.094c0-.773-.442-7.475-.991-14.955L59.453,115.9l1.1-24.087c1.1-24.529,1.209-25.409,3.079-25.409a2.366,2.366,0,0,1,1.433.661c.661.549.991,3.628,2.089,24.306l1.321,23.757-1.321,15.509c-.773,8.578-1.54,15.84-1.87,16.165A2.127,2.127,0,0,1,62.2,146.7v-.1Zm11.215-.325c-.549-.773-.991-5.392-1.758-16.5-.879-13.2-.991-16.943-.549-26.836.218-6.276.661-18.7.991-27.614s.661-16.719.773-17.6c.442-2.861,3.74-3.3,4.4-.549.112.549.773,13.858,1.433,29.474l1.209,28.493-1.209,14.742q-.642,7.642-1.209,15.291c0,.874-1.433,2.089-2.419,2.089a2.251,2.251,0,0,1-1.652-1.1v.107Zm11.444.218c-.773-.773-.991-1.982-1.209-7.7-.224-3.74-.554-9.35-.773-12.43-.661-7.805-.554-17.928.218-42.021.442-11.434.773-22.984.773-25.845.112-5.829.554-7.587,2.094-8.029,1.87-.442,3.3.879,3.3,3.191,0,1.1.549,15.4,1.1,31.679l1.1,29.591-1.1,14.849c-.554,8.136-1.1,15.067-1.1,15.4,0,.874-1.433,2.089-2.531,2.089a3.658,3.658,0,0,1-1.87-.879v.1Zm11.439,0c-.549-.661-.879-1.982-1.1-4.07-1.652-25.078-1.652-26.842-.879-53.017.991-36.075,1.209-39.49,2.089-40.369s3.3-.879,4.07,0c.442.442.773,6.82,1.321,21.12,1.321,39.927,1.433,46.3.549,59.395-.991,14.849-1.1,16.165-2.089,17.044a2.768,2.768,0,0,1-3.852-.218l-.107.117Zm11.439-.112a4.28,4.28,0,0,1-.991-2.531c0-.773-.33-7.368-.773-14.63-.773-12.206-.773-15.621,0-45.207.879-34.317.879-33.768,3.41-34.317,2.2-.442,3.634,1.428,3.634,4.838,0,1.54.218,9.569.442,17.71s.549,20.566.773,27.614c.112,6.932.33,12.979.442,13.309s-.224,7.257-.773,15.4q-.559,7.918-.991,15.845a3.745,3.745,0,0,1-3.3,3.079,3.032,3.032,0,0,1-2.089-1.1h.213Zm11.769.112c-.991-.991-1.1-2.2-2.089-19.8-.549-10.229-.442-21.008.549-55.879.554-18.7.554-19.026,3.522-19.026a3.31,3.31,0,0,1,2.531.991c.991.991.991,1.758,1.428,17.816.112,5.056.554,17.379.773,27.279.442,16.165.442,19.58-.442,32.889-.879,14.3-.991,14.849-2.089,15.728a3.349,3.349,0,0,1-4.4,0h.218Zm11.657,0c-.661-.661-.991-1.87-1.209-4.07-.773-8.471-1.321-29.479-1.1-41.909.112-7.7.442-19.468.554-26.4.549-27.827.773-32.223,1.758-33.214a3.538,3.538,0,0,1,4.731,0c1.209,1.209,1.321,4.731,2.419,58.409.33,16.17-.773,44.546-1.87,46.523a3.493,3.493,0,0,1-5.392.661h.112Zm11.993-.112a4.1,4.1,0,0,1-1.54-2.531c-.112-.884-.554-8.034-.991-15.952-.549-11.327-.661-18.147-.33-32.01.224-9.675.554-25.734.773-35.633.33-22.659.554-24.86,1.87-26.181a3.632,3.632,0,0,1,5.061.218c1.1,1.1,1.209,1.54,1.321,7.15,0,3.3.112,6.6.218,7.257s.224,10.011.442,20.784.442,19.692.554,19.8c.549.879.112,32.777-.554,42.676q-.452,6.045-.773,12.1c0,1.209-2.2,3.3-3.628,3.3a4.406,4.406,0,0,1-2.424-.98Zm10.666-.218-1.215-1.215V31.218l1.321-.991c1.54-1.209,7.368-3.079,13.2-4.289a70.15,70.15,0,0,1,22.99.218c25.952,5.392,44.434,25.3,48.617,52.357l.33,1.758,4.294-1.209a24.1,24.1,0,0,1,9.675-.991c6.713.33,7.038.33,11.434,1.977a34.737,34.737,0,0,1,18.813,48.18c-4.294,8.578-10.453,13.964-19.8,17.379l-3.516,1.321-52.357.112-52.357.112-1.428-.991Zm-103.174-.442c-.218-.549-.879-7.811-1.54-16.063-1.1-14.518-1.1-15.179-.33-24.412.442-5.173.884-11.551,1.1-14.082.33-4.619,1.1-6.825,2.312-6.825,1.54,0,1.982,1.764,3.3,15.733l1.321,14.3L55.5,129.556c-.661,8.354-1.433,15.621-1.652,16.277a1.49,1.49,0,0,1-1.652,1.1,1.566,1.566,0,0,1-1.652-1.1l.107-.112Zm-11,.224c-.112-.224-.879-7.262-1.54-15.621L36.8,115.137l1.321-15.728c.661-8.69,1.54-16.063,1.764-16.388a1.443,1.443,0,0,1,2.312,0c.33.33,1.209,7.592,1.982,16.282l1.428,15.621L44.178,130.1c-.773,8.359-1.54,15.4-1.652,15.728-.218.661-2.531.884-2.861.218v-.107Zm-10.89-1.209c-.218-.33-.991-7.038-1.652-14.961L25.8,115.361l1.209-13.639c.661-7.475,1.321-14.63,1.428-15.728.33-2.2,1.321-3.079,2.312-2.094.33.33,1.209,6.82,2.094,15.509l1.54,14.961L32.95,128.782c-.773,7.917-1.652,14.849-1.87,15.5-.549,1.215-1.652,1.433-2.312.554v-.107Zm-11.109-4.619c-.112-.442-.879-6.489-1.54-13.309L14.8,114.375l1.428-12.648c1.321-12.1,1.54-12.648,2.531-12.867,1.209-.224,1.1-.773,3.079,14.518l1.428,11.434L21.838,126.8c-.773,6.6-1.652,12.43-1.87,13.085-.554,1.321-1.764,1.439-2.094.224h-.213ZM7.432,130.87q-.779-4.1-1.321-8.247l-.991-7.48,1.1-7.917a56.328,56.328,0,0,1,1.54-8.578c1.1-1.321,1.87.773,2.968,8.578l1.209,7.917L10.73,123.06c-.661,4.4-1.54,8.136-1.87,8.359-.879.549-1.209.442-1.54-.442l.112-.107Z" transform="translate(-16966.119 4964.905)" fill="#fff"/>
  </g>
</svg>
