<svg xmlns="http://www.w3.org/2000/svg" xmlns:xlink="http://www.w3.org/1999/xlink" width="530" height="220" viewBox="0 0 530 220">
  <defs>
    <clipPath id="clip-path">
      <rect id="Rectangle_47" data-name="Rectangle 47" width="530" height="220" transform="translate(835 415)" fill="#fff"/>
    </clipPath>
  </defs>
  <g id="spotify" transform="translate(-835 -415)" clip-path="url(#clip-path)">
    <path id="spotify-2" d="M81.365,0C36.427,0,0,36.7,0,81.979s36.427,81.979,81.365,81.979,81.365-36.7,81.365-81.979S126.3.006,81.365,0Zm37.315,118.234a5.046,5.046,0,0,1-6.973,1.7c-19.1-11.764-43.156-14.421-71.477-7.9a5.108,5.108,0,0,1-2.26-9.963c30.992-7.132,57.58-4.061,79.028,9.141A5.134,5.134,0,0,1,118.681,118.234Zm9.955-22.314a6.321,6.321,0,0,1-8.728,2.1C98.044,84.48,64.7,80.559,38.831,88.468a6.345,6.345,0,0,1-7.917-4.257,6.411,6.411,0,0,1,4.231-7.971c29.548-9.034,66.286-4.66,91.4,10.891a6.414,6.414,0,0,1,2.093,8.788Zm.855-23.248C103.263,56.98,60,55.537,34.961,63.189a7.6,7.6,0,0,1-9.488-5.107,7.683,7.683,0,0,1,5.075-9.566c28.743-8.788,76.518-7.093,106.71,10.964a7.7,7.7,0,0,1,2.659,10.505A7.569,7.569,0,0,1,129.49,72.671Z" transform="translate(1018.614 443)" fill="#fff"/>
  </g>
</svg>
