<svg xmlns="http://www.w3.org/2000/svg" xmlns:xlink="http://www.w3.org/1999/xlink" width="530" height="220" viewBox="0 0 530 220">
  <defs>
    <clipPath id="clip-path">
      <rect id="Rectangle_128" data-name="Rectangle 128" width="530" height="220" transform="translate(-17152 5947)" fill="#fff" stroke="#707070" stroke-width="1"/>
    </clipPath>
  </defs>
  <g id="tunein" transform="translate(17152 -5947)" clip-path="url(#clip-path)">
    <g id="Group_129" data-name="Group 129" transform="translate(-17237.844 5611.418)">
      <path id="Path_233" data-name="Path 233" d="M413.271,417.275V411.81a1.154,1.154,0,0,1,1.152-1.151h17.833a1.153,1.153,0,0,1,1.149,1.151v5.464a1.153,1.153,0,0,1-1.149,1.149h-4.315a.544.544,0,0,0-.575.577v23.586a.543.543,0,0,0,.575.575h4.889a1.153,1.153,0,0,1,1.151,1.149v5.466a1.153,1.153,0,0,1-1.15,1.151H413.849a1.154,1.154,0,0,1-1.151-1.151v-5.466a1.154,1.154,0,0,1,1.151-1.149h4.889a.543.543,0,0,0,.575-.575V419a.544.544,0,0,0-.575-.577h-4.314a1.154,1.154,0,0,1-1.152-1.149Zm27.1-5.464a1.154,1.154,0,0,1,1.151-1.151h6.843A1.413,1.413,0,0,1,449.8,411.7l7.881,21.859c.115.345.518.23.518-.115V411.81a1.153,1.153,0,0,1,1.151-1.151h5.754a1.153,1.153,0,0,1,1.149,1.151v37.966a1.154,1.154,0,0,1-1.149,1.151h-6.789a1.485,1.485,0,0,1-1.551-.979l-7.825-20.193c-.115-.344-.518-.23-.518.115v19.9a1.153,1.153,0,0,1-1.15,1.151H441.52a1.155,1.155,0,0,1-1.151-1.15V411.81ZM216.35,419.29H382.49v79.833a.72.72,0,0,1-.719.719H216.35a.72.72,0,0,1-.719-.719V420.006a.721.721,0,0,1,.719-.719Zm278.338,56.1V386.205a4.316,4.316,0,0,0-4.315-4.315H386.805a4.316,4.316,0,0,0-4.315,4.315v24.453H211.315A4.315,4.315,0,0,0,207,414.975v89.184a4.315,4.315,0,0,0,4.315,4.315h175.49a4.315,4.315,0,0,0,4.315-4.315V479.7h99.253a4.316,4.316,0,0,0,4.315-4.315Z" transform="translate(0)" fill="#fff" fill-rule="evenodd"/>
      <path id="Path_234" data-name="Path 234" d="M317.031,457.008V419.042a1.153,1.153,0,0,0-1.149-1.151h-5.754a1.153,1.153,0,0,0-1.151,1.151v21.625c0,.345-.4.46-.518.115l-7.881-21.859a1.412,1.412,0,0,0-1.439-1.035h-6.845a1.154,1.154,0,0,0-1.15,1.151V457a1.156,1.156,0,0,0,1.151,1.151h5.753A1.153,1.153,0,0,0,299.2,457V437.1c0-.345.4-.459.518-.115l7.825,20.192a1.485,1.485,0,0,0,1.551.979h6.789a1.154,1.154,0,0,0,1.149-1.151Zm-65.244-32.215V419.04a1.153,1.153,0,0,0-1.151-1.151H227.051a1.152,1.152,0,0,0-1.151,1.151v5.753a1.153,1.153,0,0,0,1.151,1.151h7.19a.543.543,0,0,1,.575.575v30.488a1.154,1.154,0,0,0,1.151,1.151h5.753a1.155,1.155,0,0,0,1.151-1.151V426.52a.543.543,0,0,1,.575-.575h7.19a1.154,1.154,0,0,0,1.15-1.151Zm32.8,21.286V419.042a1.152,1.152,0,0,0-1.151-1.151h-5.815a1.153,1.153,0,0,0-1.151,1.151v27.038c0,2.53-2.07,4.6-5.581,4.6-3.393,0-5.463-2.071-5.463-4.6V419.042a1.154,1.154,0,0,0-1.151-1.151h-5.815a1.153,1.153,0,0,0-1.153,1.151v27.038c0,6.96,5.754,12.713,13.575,12.713,7.94,0,13.693-5.753,13.693-12.713Zm38.846-27.038v37.966a1.154,1.154,0,0,0,1.151,1.15H345.69a1.154,1.154,0,0,0,1.15-1.151v-5.753a1.154,1.154,0,0,0-1.151-1.151H332.046a.544.544,0,0,1-.577-.575v-6.9a.544.544,0,0,1,.577-.575h12.943a1.153,1.153,0,0,0,1.151-1.151v-5.753A1.154,1.154,0,0,0,344.989,434H332.046a.544.544,0,0,1-.577-.575v-6.9a.544.544,0,0,1,.577-.575h13.4a1.154,1.154,0,0,0,1.15-1.151V419.04a1.153,1.153,0,0,0-1.15-1.151H324.574a1.153,1.153,0,0,0-1.151,1.151Z" transform="translate(11.307 21.537)" fill="#fff" fill-rule="evenodd"/>
    </g>
  </g>
</svg>
