<svg xmlns="http://www.w3.org/2000/svg" xmlns:xlink="http://www.w3.org/1999/xlink" width="530" height="220" viewBox="0 0 530 220">
  <defs>
    <clipPath id="clip-path">
      <rect id="Rectangle_128" data-name="Rectangle 128" width="530" height="220" transform="translate(-17152 5947)" fill="#fff" stroke="#707070" stroke-width="1"/>
    </clipPath>
  </defs>
  <g id="Mask_Group_35" data-name="Mask Group 35" transform="translate(17152 -5947)" clip-path="url(#clip-path)">
    <g id="Group_129" data-name="Group 129" transform="translate(-17210.271 5623.55)">
      <path id="Path_233" data-name="Path 233" d="M373.733,410.492v-4.417a.933.933,0,0,1,.931-.93h14.415a.932.932,0,0,1,.929.93v4.417a.932.932,0,0,1-.929.929h-3.488a.44.44,0,0,0-.465.466v19.065a.439.439,0,0,0,.465.465h3.952a.932.932,0,0,1,.93.929v4.418a.932.932,0,0,1-.93.93H374.2a.933.933,0,0,1-.93-.93v-4.418a.933.933,0,0,1,.93-.929h3.952a.439.439,0,0,0,.465-.465V411.887a.44.44,0,0,0-.465-.466h-3.487a.933.933,0,0,1-.931-.929Zm21.906-4.417a.933.933,0,0,1,.93-.93H402.1a1.142,1.142,0,0,1,1.163.837l6.37,17.669c.093.279.419.186.419-.093V406.075a.932.932,0,0,1,.93-.93h4.651a.932.932,0,0,1,.929.93v30.689a.933.933,0,0,1-.929.93h-5.488a1.2,1.2,0,0,1-1.254-.791l-6.325-16.322c-.093-.278-.419-.186-.419.093v16.089a.932.932,0,0,1-.93.93h-4.65a.934.934,0,0,1-.93-.93V406.075Zm-181.081,6.046H348.852v64.531a.582.582,0,0,1-.581.581H214.558a.582.582,0,0,1-.581-.581V412.7a.583.583,0,0,1,.581-.581Zm224.986,45.346V385.378a3.489,3.489,0,0,0-3.488-3.488H352.34a3.489,3.489,0,0,0-3.488,3.488v19.766H210.488A3.488,3.488,0,0,0,207,408.633v72.089a3.488,3.488,0,0,0,3.488,3.488H352.34a3.488,3.488,0,0,0,3.488-3.488V460.955h80.228a3.489,3.489,0,0,0,3.488-3.488Z" fill="#fff" fill-rule="evenodd"/>
      <path id="Path_234" data-name="Path 234" d="M299.563,449.509V418.82a.932.932,0,0,0-.929-.93h-4.651a.932.932,0,0,0-.93.93V436.3c0,.279-.324.372-.419.093l-6.37-17.669a1.141,1.141,0,0,0-1.163-.837h-5.533a.933.933,0,0,0-.93.93v30.689a.934.934,0,0,0,.93.93h4.65a.932.932,0,0,0,.93-.93V433.42c0-.279.326-.371.419-.093l6.325,16.322a1.2,1.2,0,0,0,1.254.791h5.488a.933.933,0,0,0,.929-.93Zm-52.738-26.04v-4.65a.932.932,0,0,0-.93-.93H226.83a.931.931,0,0,0-.93.93v4.65a.932.932,0,0,0,.93.93h5.812a.439.439,0,0,1,.465.465v24.644a.933.933,0,0,0,.93.93h4.65a.934.934,0,0,0,.93-.93V424.865a.439.439,0,0,1,.465-.465h5.812a.933.933,0,0,0,.93-.93Zm26.509,17.206V418.82a.931.931,0,0,0-.93-.93h-4.7a.932.932,0,0,0-.93.93v21.855c0,2.045-1.673,3.719-4.511,3.719-2.743,0-4.416-1.674-4.416-3.719V418.82a.933.933,0,0,0-.93-.93h-4.7a.932.932,0,0,0-.932.93v21.855c0,5.626,4.651,10.276,10.973,10.276,6.418,0,11.068-4.65,11.068-10.276Zm31.4-21.855v30.689a.933.933,0,0,0,.93.93h17.065a.933.933,0,0,0,.93-.93v-4.65a.933.933,0,0,0-.93-.93H311.7a.44.44,0,0,1-.466-.465v-5.58a.44.44,0,0,1,.466-.465h10.462a.932.932,0,0,0,.93-.93v-4.65a.933.933,0,0,0-.93-.93H311.7a.44.44,0,0,1-.466-.465v-5.58a.44.44,0,0,1,.466-.465h10.834a.933.933,0,0,0,.93-.93v-4.65a.932.932,0,0,0-.93-.93H305.66a.932.932,0,0,0-.93.93Z" transform="translate(5.517 10.509)" fill="#fff" fill-rule="evenodd"/>
    </g>
  </g>
</svg>
