<svg xmlns="http://www.w3.org/2000/svg" xmlns:xlink="http://www.w3.org/1999/xlink" width="530" height="220" viewBox="0 0 530 220">
  <defs>
    <clipPath id="clip-path">
      <rect id="Rectangle_47" data-name="Rectangle 47" width="530" height="220" transform="translate(835 415)" fill="#fff"/>
    </clipPath>
  </defs>
  <g id="youtube" transform="translate(-835 -415)" clip-path="url(#clip-path)">
    <path id="Path_27" data-name="Path 27" d="M366.525,713.725l-45.422-.837c-14.707-.292-29.45.291-43.868-2.731-21.933-4.515-23.487-26.65-25.113-45.218a319.567,319.567,0,0,1,2.855-78.567c2.387-14.525,11.78-23.192,26.305-24.135,49.035-3.423,98.4-3.017,147.322-1.42a105.51,105.51,0,0,1,15.465,1.857c25.151,4.442,25.764,29.527,27.394,50.643a289.227,289.227,0,0,1-2.168,63.968c-2.493,17.544-7.263,32.257-27.394,33.677-25.223,1.857-49.867,3.352-75.161,2.876C366.742,713.725,366.6,713.725,366.525,713.725Zm-26.7-44.417c19.008-11,37.652-21.808,56.551-32.73-19.043-11-37.652-21.808-56.551-32.73Z" transform="translate(737.916 -111.625)" fill="#fff"/>
  </g>
</svg>
