<svg xmlns="http://www.w3.org/2000/svg" xmlns:xlink="http://www.w3.org/1999/xlink" width="530" height="220" viewBox="0 0 530 220">
  <defs>
    <clipPath id="clip-path">
      <rect id="Rectangle_47" data-name="Rectangle 47" width="530" height="220" transform="translate(835 415)" fill="#fff"/>
    </clipPath>
  </defs>
  <g id="youtube" transform="translate(-835 -415)" clip-path="url(#clip-path)">
    <path id="Path_27" data-name="Path 27" d="M349.7,691.3l-38.813-.715c-12.567-.25-25.165.249-37.485-2.334-18.742-3.858-20.069-22.772-21.459-38.638a273.069,273.069,0,0,1,2.44-67.135c2.04-12.411,10.066-19.817,22.477-20.623,41.9-2.925,84.082-2.578,125.886-1.213a90.156,90.156,0,0,1,13.215,1.587c21.491,3.8,22.015,25.231,23.408,43.274a247.143,247.143,0,0,1-1.853,54.66c-2.13,14.991-6.206,27.563-23.408,28.777-21.553,1.587-42.611,2.864-64.225,2.458C349.888,691.3,349.767,691.3,349.7,691.3Zm-22.815-37.954c16.242-9.4,32.173-18.635,48.322-27.968-16.272-9.4-32.173-18.635-48.322-27.968Z" transform="translate(754.024 -100.399)" fill="#fff"/>
  </g>
</svg>
