<svg xmlns="http://www.w3.org/2000/svg" xmlns:xlink="http://www.w3.org/1999/xlink" width="455" height="110" viewBox="0 0 455 110">
  <defs>
    <clipPath id="clip-path">
      <rect id="Rectangle_166" data-name="Rectangle 166" width="455" height="110" transform="translate(14497 -8560)" fill="#fff" stroke="#707070" stroke-width="1"/>
    </clipPath>
  </defs>
  <g id="Mask_Group_46" data-name="Mask Group 46" transform="translate(-14497 8560)" clip-path="url(#clip-path)">
    <g id="Google_TV_logo" transform="translate(14497 -8540.219)">
      <path id="Path_9" data-name="Path 9" d="M172.347,0H115.284A9,9,0,0,0,106.3,8.984v8.984h69.56a9,9,0,0,1,8.984,8.984V12.5A12.479,12.479,0,0,0,172.347,0Z" transform="translate(-88.349)" fill="#4285f4"/>
      <path id="Path_10" data-name="Path 10" d="M12.5,0A12.534,12.534,0,0,0,0,12.5V43.469a9,9,0,0,0,8.984,8.984h8.984V8.984A9,9,0,0,1,26.953,0Z" fill="#34a853"/>
      <path id="Path_11" data-name="Path 11" d="M12.5,284.336H69.56a9,9,0,0,0,8.984-8.984v-8.984H8.984A8.977,8.977,0,0,1,0,257.4v14.523a12.462,12.462,0,0,0,12.5,12.412Z" transform="translate(0 -213.931)" fill="#fbbc04"/>
      <path id="Path_12" data-name="Path 12" d="M426.256,158.753a12.534,12.534,0,0,0,12.5-12.5V115.284a9,9,0,0,0-8.984-8.984h-8.984v43.469a8.991,8.991,0,0,1-8.984,8.984Z" transform="translate(-342.257 -88.349)" fill="#ea4335"/>
      <path id="Clone_TV" data-name="Clone TV" d="M32.555,1.02A29,29,0,0,1,17.3-2.848a25.9,25.9,0,0,1-9.9-10.8A35.2,35.2,0,0,1,3.91-29.665,35.4,35.4,0,0,1,7.395-45.772,26.177,26.177,0,0,1,17.3-56.61a28.758,28.758,0,0,1,15.257-3.91q10.455,0,17.085,5.1a22.754,22.754,0,0,1,8.415,14.28H48.025a14.121,14.121,0,0,0-5.1-8.245q-3.91-3.06-10.455-3.06-8.925,0-14.11,6.078t-5.185,16.7q0,10.54,5.185,16.575T32.47-7.055q6.545,0,10.455-2.89a13.3,13.3,0,0,0,5.1-7.905h10.03A22.2,22.2,0,0,1,49.64-3.995Q43.01,1.02,32.555,1.02ZM63.41,0V-61.2h9.01V0ZM99.28,1.02A21.34,21.34,0,0,1,88.442-1.743a20.161,20.161,0,0,1-7.607-7.735,23.218,23.218,0,0,1-2.805-11.6,22.942,22.942,0,0,1,2.847-11.6,20.374,20.374,0,0,1,7.693-7.735A21.406,21.406,0,0,1,99.365-43.18,21.34,21.34,0,0,1,110.2-40.417a20.467,20.467,0,0,1,7.65,7.735,22.942,22.942,0,0,1,2.848,11.6,22.942,22.942,0,0,1-2.848,11.6,20.373,20.373,0,0,1-7.692,7.735A21.572,21.572,0,0,1,99.28,1.02Zm0-7.735a11.667,11.667,0,0,0,5.993-1.615,11.843,11.843,0,0,0,4.463-4.8,16.749,16.749,0,0,0,1.7-7.948,17.108,17.108,0,0,0-1.658-7.948,11.566,11.566,0,0,0-4.42-4.8,11.667,11.667,0,0,0-5.993-1.615,11.667,11.667,0,0,0-5.993,1.615,11.843,11.843,0,0,0-4.463,4.8,16.749,16.749,0,0,0-1.7,7.948,16.749,16.749,0,0,0,1.7,7.948,11.946,11.946,0,0,0,4.42,4.8A11.442,11.442,0,0,0,99.28-6.715ZM126.225,0V-42.16h7.99l.68,7.4a14.677,14.677,0,0,1,5.737-6.163,16.7,16.7,0,0,1,8.713-2.252q7.65,0,12.027,4.76t4.378,14.195V0h-8.925V-23.29q0-12.24-10.03-12.24a10.755,10.755,0,0,0-8.287,3.57q-3.273,3.57-3.273,10.2V0Zm65.62,1.02a21.677,21.677,0,0,1-11.007-2.763,19.641,19.641,0,0,1-7.523-7.693,23.374,23.374,0,0,1-2.72-11.475,24.358,24.358,0,0,1,2.678-11.645,19.5,19.5,0,0,1,7.48-7.82A21.757,21.757,0,0,1,191.93-43.18a20.533,20.533,0,0,1,10.795,2.763,19.533,19.533,0,0,1,7.14,7.353,20.476,20.476,0,0,1,2.55,10.115q0,.85-.042,1.828t-.128,2.167h-32.81q.425,6.12,4.037,9.307a12.271,12.271,0,0,0,8.372,3.188A11.249,11.249,0,0,0,198.262-8.2a10.559,10.559,0,0,0,3.867-4.717h9.01a19.132,19.132,0,0,1-6.758,9.945A19.6,19.6,0,0,1,191.845,1.02Zm0-36.8a12.759,12.759,0,0,0-7.99,2.678,11.712,11.712,0,0,0-4.25,8.032h23.8a10.76,10.76,0,0,0-3.485-7.82A11.661,11.661,0,0,0,191.845-35.785ZM248.965,0V-52.19h-17.6V-59.5h44.115v7.31h-17.51V0Zm48.28,0L275.23-59.5h9.605l17.85,50.15L320.62-59.5h9.52L308.125,0Z" transform="translate(123 64.219)" fill="#fff"/>
    </g>
  </g>
</svg>
