<svg xmlns="http://www.w3.org/2000/svg" xmlns:xlink="http://www.w3.org/1999/xlink" width="136" height="46" viewBox="0 0 136 46">
  <defs>
    <clipPath id="clip-path">
      <rect id="Rectangle_167" data-name="Rectangle 167" width="136" height="46" transform="translate(14351 -8560)" fill="#fff" stroke="#707070" stroke-width="1"/>
    </clipPath>
  </defs>
  <g id="Mask_Group_47" data-name="Mask Group 47" transform="translate(-14351 8560)" clip-path="url(#clip-path)">
    <path id="Clone_TV" data-name="Clone TV" d="M13.335.42A11.689,11.689,0,0,1,7.122-1.173,10.737,10.737,0,0,1,3.08-5.618,14.574,14.574,0,0,1,1.645-12.25a14.493,14.493,0,0,1,1.435-6.6A10.855,10.855,0,0,1,7.122-23.31a11.591,11.591,0,0,1,6.213-1.61,10.985,10.985,0,0,1,6.842,2.012,9.049,9.049,0,0,1,3.377,5.618H20.3a6.531,6.531,0,0,0-2.292-3.658,7.283,7.283,0,0,0-4.673-1.382A8.564,8.564,0,0,0,8.75-21.122a7.934,7.934,0,0,0-3.028,3.465A12.557,12.557,0,0,0,4.655-12.25,12.557,12.557,0,0,0,5.722-6.843,7.934,7.934,0,0,0,8.75-3.378,8.564,8.564,0,0,0,13.335-2.17a7.416,7.416,0,0,0,4.673-1.348A6.354,6.354,0,0,0,20.3-7.105h3.255a8.936,8.936,0,0,1-3.377,5.53A11.053,11.053,0,0,1,13.335.42ZM26.215,0V-25.2h2.94V0Zm14.28.42A8.729,8.729,0,0,1,36.085-.7a8.09,8.09,0,0,1-3.1-3.168A9.753,9.753,0,0,1,31.85-8.68a9.634,9.634,0,0,1,1.155-4.812,8.176,8.176,0,0,1,3.132-3.167,8.825,8.825,0,0,1,4.427-1.12,8.729,8.729,0,0,1,4.41,1.12,8.09,8.09,0,0,1,3.1,3.167A9.753,9.753,0,0,1,49.21-8.68a9.634,9.634,0,0,1-1.155,4.813A8.176,8.176,0,0,1,44.923-.7,8.825,8.825,0,0,1,40.495.42Zm0-2.52a5.578,5.578,0,0,0,2.8-.735,5.482,5.482,0,0,0,2.1-2.2A7.5,7.5,0,0,0,46.2-8.68a7.636,7.636,0,0,0-.788-3.64,5.369,5.369,0,0,0-2.082-2.2,5.513,5.513,0,0,0-2.765-.735,5.578,5.578,0,0,0-2.8.735,5.482,5.482,0,0,0-2.1,2.2,7.5,7.5,0,0,0-.805,3.64,7.5,7.5,0,0,0,.805,3.64,5.522,5.522,0,0,0,2.083,2.2A5.418,5.418,0,0,0,40.495-2.1ZM51.905,0V-17.36h2.66l.175,3.115a6.3,6.3,0,0,1,2.415-2.59,6.8,6.8,0,0,1,3.57-.945,6.577,6.577,0,0,1,4.917,1.873q1.837,1.872,1.838,5.757V0H64.54V-9.835q0-5.425-4.48-5.425a4.838,4.838,0,0,0-3.728,1.627,6.633,6.633,0,0,0-1.487,4.637V0ZM78.33.42A8.5,8.5,0,0,1,73.92-.718a8.076,8.076,0,0,1-3.027-3.167,9.9,9.9,0,0,1-1.1-4.8,10.058,10.058,0,0,1,1.085-4.777A7.889,7.889,0,0,1,73.9-16.642a8.735,8.735,0,0,1,4.5-1.138,8.112,8.112,0,0,1,4.357,1.138,7.707,7.707,0,0,1,2.817,2.993,8.414,8.414,0,0,1,.98,3.99q0,.385-.018.77t-.017.875H72.695a6.821,6.821,0,0,0,.927,3.308A5.483,5.483,0,0,0,75.688-2.73a5.518,5.518,0,0,0,2.643.665,5.26,5.26,0,0,0,3.045-.84A4.806,4.806,0,0,0,83.16-5.18h2.9a7.835,7.835,0,0,1-2.678,4.008A7.808,7.808,0,0,1,78.33.42Zm0-15.715A5.871,5.871,0,0,0,74.6-14.017,5.147,5.147,0,0,0,72.73-10.29H83.65a4.966,4.966,0,0,0-1.61-3.675A5.4,5.4,0,0,0,78.33-15.3ZM102.83,0V-22.085H95.515V-24.5h17.57v2.415H105.77V0Zm19.845,0L113.47-24.5h3.185L124.39-3.115l7.8-21.385h3.115L126.1,0Z" transform="translate(14351 -8525)" fill="#fff" opacity="0.5"/>
  </g>
</svg>
