<svg xmlns="http://www.w3.org/2000/svg" xmlns:xlink="http://www.w3.org/1999/xlink" width="135" height="56" viewBox="0 0 135 56">
  <defs>
    <clipPath id="clip-path">
      <rect id="Rectangle_90" data-name="Rectangle 90" width="135" height="56" transform="translate(693 430)" fill="#fff"/>
    </clipPath>
  </defs>
  <g id="Mask_Group_24" data-name="Mask Group 24" transform="translate(-693 -430)" clip-path="url(#clip-path)">
    <g id="amazon-prime-video-logo" transform="translate(698.824 438.93)">
      <path id="Path_75" data-name="Path 75" d="M396.5,245.308v-.062a.293.293,0,0,1,.262-.109c.448-.016.88-.016,1.327,0a.337.337,0,0,1,.262.109v.062Z" transform="translate(-335.305 -207.015)" fill="#fff"/>
      <path id="Path_76" data-name="Path 76" d="M225.922,66.651q-.926-.023-1.852,0c-.849-.047-1.7-.078-2.547-.14a43.913,43.913,0,0,1-6.683-1.026,45.146,45.146,0,0,1-20.033-10.512c-.54-.482-1.049-.98-1.574-1.477a1.145,1.145,0,0,1-.293-.42.576.576,0,0,1,.108-.622.543.543,0,0,1,.617-.14,3.235,3.235,0,0,1,.4.2A59.8,59.8,0,0,0,212,59.98a64.943,64.943,0,0,0,6.436,1.166,58.787,58.787,0,0,0,9.353.42,49.208,49.208,0,0,0,5.016-.42,60.259,60.259,0,0,0,11.452-2.628A53.767,53.767,0,0,0,250,56.248a1.281,1.281,0,0,1,.926-.124.966.966,0,0,1,.695,1.166,1.084,1.084,0,0,1-.077.2,1.7,1.7,0,0,1-.509.591,34.325,34.325,0,0,1-5.711,3.654,45,45,0,0,1-12.085,4.121,52.619,52.619,0,0,1-7.316.793Zm-22.857-31.52c.386-.233.787-.482,1.2-.7a6.855,6.855,0,0,1,3.5-.778,3.246,3.246,0,0,1,2.3.949,3.318,3.318,0,0,1,.864,2.161c.015.171.015.342.015.529v8.055c0,.7-.093.793-.787.793h-1.883a2.952,2.952,0,0,1-.37-.016.427.427,0,0,1-.37-.358,2.863,2.863,0,0,1-.031-.513v-7.2a2.649,2.649,0,0,0-.093-.855,1.156,1.156,0,0,0-1.049-.855,5.413,5.413,0,0,0-2.655.513.256.256,0,0,0-.185.28v8.179a2.218,2.218,0,0,1-.031.451.371.371,0,0,1-.386.373c-.232.016-.463.016-.71.016h-1.636c-.571,0-.695-.14-.695-.715V38.086a3.59,3.59,0,0,0-.077-.809,1.168,1.168,0,0,0-1.08-.933,5.4,5.4,0,0,0-2.7.529.248.248,0,0,0-.17.3v8.288c0,.575-.123.7-.695.7h-2.068c-.54,0-.679-.156-.679-.684V34.68a1.544,1.544,0,0,1,.046-.373.45.45,0,0,1,.432-.3h1.929a.558.558,0,0,1,.54.435c.077.218.123.42.2.653.154,0,.247-.109.355-.171a7.983,7.983,0,0,1,2.747-1.166,5.8,5.8,0,0,1,2.315,0,2.892,2.892,0,0,1,1.79,1.213.675.675,0,0,0,.093.109c-.015.016,0,.016.015.047Z" transform="translate(-162.874 -28.421)" fill="#fff"/>
      <path id="Path_77" data-name="Path 77" d="M434.409,44.742c.093-.311.185-.606.278-.917.71-2.41,1.42-4.805,2.13-7.215l.093-.28a.63.63,0,0,1,.617-.451h2.346c.586,0,.71.171.509.731l-.926,2.472c-1.034,2.706-2.068,5.427-3.1,8.133-.031.093-.077.187-.108.28a.752.752,0,0,1-.772.513q-1.019-.023-2.037,0a.874.874,0,0,1-.926-.638c-.386-1.026-.787-2.068-1.173-3.095-.926-2.441-1.867-4.883-2.794-7.34a2.794,2.794,0,0,1-.2-.606c-.046-.311.062-.467.37-.467.88-.016,1.759,0,2.624,0,.37,0,.54.249.633.575.17.591.34,1.2.525,1.788.633,2.161,1.25,4.339,1.883,6.5C434.363,44.742,434.378,44.742,434.409,44.742Z" transform="translate(-362.225 -30.288)" fill="#fff"/>
      <path id="Path_78" data-name="Path 78" d="M94.757,36.971a.46.46,0,0,0,.262-.187,10.693,10.693,0,0,1,.88-.793,4.085,4.085,0,0,1,2.809-.855c.4.016.54.14.571.529.031.529.015,1.073.015,1.6a2.946,2.946,0,0,1-.031.638c-.062.28-.17.389-.448.42a4.3,4.3,0,0,1-.633-.016,7.343,7.343,0,0,0-3.01.435c-.216.078-.216.233-.216.4v7.464a3.541,3.541,0,0,1-.015.4.374.374,0,0,1-.37.358,2.482,2.482,0,0,1-.34.016H92.225a2.482,2.482,0,0,1-.34-.016.415.415,0,0,1-.37-.389,3.019,3.019,0,0,1-.015-.373V36.038c0-.715.077-.793.787-.793h1.482a.613.613,0,0,1,.695.529c.108.389.2.778.293,1.2Zm72.2,15.768a13.058,13.058,0,0,1,3.01.358,4.973,4.973,0,0,1,.8.3,1.048,1.048,0,0,1,.633.855,6.429,6.429,0,0,1,.046,1.337A17.238,17.238,0,0,1,169.07,63.1a10.357,10.357,0,0,1-1.79,2.224,1.272,1.272,0,0,1-.494.311.362.362,0,0,1-.494-.373,1.7,1.7,0,0,1,.108-.467c.54-1.462,1.065-2.908,1.482-4.416a15.533,15.533,0,0,0,.525-2.519,4.712,4.712,0,0,0,.015-.933,1.212,1.212,0,0,0-.864-1.135,5.946,5.946,0,0,0-1.482-.28,24.185,24.185,0,0,0-4.244.187l-1.867.233a.46.46,0,0,1-.494-.187.529.529,0,0,1,.046-.56,1.554,1.554,0,0,1,.463-.435,10.557,10.557,0,0,1,3.781-1.648A18.274,18.274,0,0,1,166.956,52.739Z" transform="translate(-77.378 -29.67)" fill="#fff"/>
      <path id="Path_79" data-name="Path 79" d="M519.557,42.065v5.6a.443.443,0,0,1-.478.467c-.833.016-1.651.016-2.485,0a.431.431,0,0,1-.478-.451,1.9,1.9,0,0,1-.015-.3V36.622c.015-.482.139-.622.617-.622h2.222c.478,0,.617.14.617.622Z" transform="translate(-436.446 -30.41)" fill="#fff"/>
      <path id="Path_80" data-name="Path 80" d="M150.14,11.7V6.18c.015-.373.154-.513.525-.529q1.2-.023,2.408,0c.355,0,.463.109.494.467a3.543,3.543,0,0,1,.015.4V16.878c0,.171-.015.342-.031.513a.385.385,0,0,1-.37.358,1.486,1.486,0,0,1-.262.016h-2.145a1.011,1.011,0,0,1-.216-.016.448.448,0,0,1-.417-.4,3.02,3.02,0,0,1-.015-.373c.015-1.726.015-3.5.015-5.272ZM151.93.084a1.914,1.914,0,0,1,.725.109,1.765,1.765,0,0,1,1.188,1.959,1.731,1.731,0,0,1-1.466,1.586,2.888,2.888,0,0,1-1.034,0,1.738,1.738,0,0,1-1.466-1.944A1.8,1.8,0,0,1,151.93.084Z" transform="translate(-126.742 -0.076)" fill="#fff"/>
      <path id="Path_81" data-name="Path 81" d="M516.515.057a1.854,1.854,0,0,1,.911.156,1.634,1.634,0,0,1,1.049,1.446,1.826,1.826,0,0,1-2.068,2.1A2.848,2.848,0,0,1,515.9,3.7a1.758,1.758,0,0,1-1.358-2.053A1.734,1.734,0,0,1,516.191.073a1.136,1.136,0,0,1,.324-.016Z" transform="translate(-435.117 -0.049)" fill="#fff"/>
      <path id="Path_82" data-name="Path 82" d="M11.838,38.725a7.124,7.124,0,0,0-.6-2.333,4.475,4.475,0,0,0-3.087-2.659,5.423,5.423,0,0,0-4.615,1.042,1.236,1.236,0,0,1-.324.233c-.031-.016-.062-.031-.062-.047-.046-.156-.077-.311-.123-.467-.123-.389-.278-.529-.695-.529-.463,0-.941.016-1.4,0A1.07,1.07,0,0,0,0,34.277c0,5.443,0,10.9.015,16.328a.858.858,0,0,0,.864.373c.556-.016,1.111,0,1.667,0,.972,0,.972,0,.972-.964V45.583c0-.109-.046-.233.062-.327a5.163,5.163,0,0,0,2.685,1.073,4.506,4.506,0,0,0,3.627-1.135A5.76,5.76,0,0,0,11.5,42.6a9.682,9.682,0,0,0,.34-3.872ZM8.149,41.944a2.4,2.4,0,0,1-.71,1.244,2.188,2.188,0,0,1-1.42.544,4.209,4.209,0,0,1-2.253-.5A.441.441,0,0,1,3.5,42.8V39.984c0-.933.015-1.866,0-2.8a.473.473,0,0,1,.309-.482,4.146,4.146,0,0,1,2.655-.4,1.887,1.887,0,0,1,1.466,1.12A4.371,4.371,0,0,1,8.334,39a7.828,7.828,0,0,1-.185,2.939Z" transform="translate(0 -28.376)" fill="#fff"/>
      <path id="Path_83" data-name="Path 83" d="M590.941,13.458Zm.015-2.084v.062a.225.225,0,0,1-.062-.233v-.124a.015.015,0,0,1,.015-.016h-.015v-.156h.031c0-.016-.015-.016-.015-.031a5.425,5.425,0,0,0-.17-.871A5.21,5.21,0,0,0,586.8,6.072a7.528,7.528,0,0,0-2.948-.109,5.073,5.073,0,0,0-4.306,3.421,8.377,8.377,0,0,0,.015,5.878,4.933,4.933,0,0,0,3.627,3.266,7.589,7.589,0,0,0,2.9.156,5.326,5.326,0,0,0,4.8-5.007h-.015v-.218c-.015-.093-.031-.171.062-.233v.031a.118.118,0,0,1,.031-.062V11.405c0-.016-.015-.016-.015-.031Zm-3.7,2.955a2.857,2.857,0,0,1-.432.9,2,2,0,0,1-1.466.84,2.788,2.788,0,0,1-.88-.031,1.986,1.986,0,0,1-1.451-1.166,4.476,4.476,0,0,1-.417-1.539,8.576,8.576,0,0,1,.123-2.737,3.5,3.5,0,0,1,.417-1.026,2.009,2.009,0,0,1,1.574-.964,2.787,2.787,0,0,1,.88.031,1.991,1.991,0,0,1,1.4,1.1,4.617,4.617,0,0,1,.448,1.757,7.635,7.635,0,0,1,.015.84,5.724,5.724,0,0,1-.216,1.99ZM563.9.8h-2.145c-.586,0-.695.109-.695.7V6.538c0,.109.046.218-.031.327-.139-.016-.216-.109-.324-.171a5.1,5.1,0,0,0-4.985-.327,4.881,4.881,0,0,0-2.408,2.768,8.891,8.891,0,0,0-.54,3.592,7.453,7.453,0,0,0,.772,3.312,4.45,4.45,0,0,0,2.67,2.379,4.967,4.967,0,0,0,4.692-.809c.108-.062.17-.171.309-.2a2.229,2.229,0,0,1,.17.544.548.548,0,0,0,.54.42h.37c.556,0,1.1.016,1.636,0,.432,0,.556-.14.571-.591V1.391c-.015-.482-.139-.591-.6-.591Zm-2.824,11.445v2.83a.409.409,0,0,1-.247.435,3.781,3.781,0,0,1-2.423.467,2.114,2.114,0,0,1-1.651-1.151,4.335,4.335,0,0,1-.432-1.571,8.1,8.1,0,0,1,.185-2.923,3.58,3.58,0,0,1,.309-.762,1.991,1.991,0,0,1,1.62-1.042,4.629,4.629,0,0,1,2.377.42.429.429,0,0,1,.278.451C561.061,10.363,561.077,11.3,561.077,12.245Z" transform="translate(-467.455 -0.683)" fill="#fff"/>
      <path id="Path_84" data-name="Path 84" d="M328,41.453a10.2,10.2,0,0,0,3.5.047,5.621,5.621,0,0,0,1.929-.622,2.888,2.888,0,0,0,1.42-1.742,3.715,3.715,0,0,0-2.315-4.665,6.857,6.857,0,0,0-3.071-.3,5.275,5.275,0,0,0-4.754,3.981,8.647,8.647,0,0,0-.031,4.852,4.841,4.841,0,0,0,3.951,3.732,9.88,9.88,0,0,0,5.356-.467.712.712,0,0,0,.525-.762c-.015-.373,0-.762,0-1.151,0-.467-.185-.606-.633-.5s-.88.2-1.327.3a7.591,7.591,0,0,1-2.9.031,2.6,2.6,0,0,1-2.084-2.8A4.129,4.129,0,0,1,328,41.453Zm-.386-2.379A4.246,4.246,0,0,1,327.907,38a2.3,2.3,0,0,1,2.423-1.462,2.5,2.5,0,0,1,.818.187,1.185,1.185,0,0,1,.71.98,1.8,1.8,0,0,1-.046.809,1.379,1.379,0,0,1-1.173.9,3.1,3.1,0,0,1-1,.078,11.972,11.972,0,0,1-1.821-.14C327.583,39.323,327.583,39.323,327.614,39.074Z" transform="translate(-274.29 -28.818)" fill="#fff"/>
      <path id="Path_85" data-name="Path 85" d="M650.037,41.733a6.288,6.288,0,0,0,2.593-.669A2.889,2.889,0,0,0,654.189,39a4.255,4.255,0,0,0-.015-1.711,3.594,3.594,0,0,0-2.531-2.721,6.783,6.783,0,0,0-2.3-.3,5.38,5.38,0,0,0-5.371,4,8.7,8.7,0,0,0,.062,5.209,4.757,4.757,0,0,0,3.534,3.328,8.313,8.313,0,0,0,2.315.233A9.747,9.747,0,0,0,653.2,46.4a.691.691,0,0,0,.556-.809v-1.12c-.015-.451-.2-.606-.648-.5-.339.093-.664.171-1,.249a7.75,7.75,0,0,1-3.164.109,2.425,2.425,0,0,1-2.037-1.866,6.412,6.412,0,0,1-.17-.949.487.487,0,0,1,.216.031A12.088,12.088,0,0,0,650.037,41.733Zm-3.226-2.488a3.875,3.875,0,0,1,.617-1.695,2.308,2.308,0,0,1,2.253-.886c.077,0,.139.031.216.031a1.39,1.39,0,0,1,1.142,1.882,1.361,1.361,0,0,1-1.235.964,3.916,3.916,0,0,1-.957.078,14.875,14.875,0,0,1-1.867-.156C646.842,39.447,646.781,39.385,646.811,39.245Z" transform="translate(-544.269 -28.942)" fill="#fff"/>
    </g>
  </g>
</svg>
