<svg xmlns="http://www.w3.org/2000/svg" xmlns:xlink="http://www.w3.org/1999/xlink" width="150" height="146" viewBox="0 0 150 146">
  <defs>
    <clipPath id="clip-path">
      <rect id="Rectangle_109" data-name="Rectangle 109" width="150" height="146" fill="none" stroke="#707070" stroke-width="1"/>
    </clipPath>
  </defs>
  <g id="Mask_Group_30" data-name="Mask Group 30" clip-path="url(#clip-path)">
    <g id="Group_110" data-name="Group 110" transform="translate(14 15.573)">
      <path id="Path_117" data-name="Path 117" d="M456.307,365.489q5.378,6,10.751,12c11.4,12.718,11.793,33.724-.9,54.066-17.115,27.421-51.527,43.24-76.876,35.329a34.8,34.8,0,0,1-15.806-9.89q-5.378-6-10.749-12a34.783,34.783,0,0,0,15.8,9.89c25.351,7.909,59.765-7.909,76.876-35.33C468.1,399.214,467.7,378.209,456.307,365.489Z" transform="translate(-354.133 -353.559)" fill="#156fe8"/>
      <path id="Path_118" data-name="Path 118" d="M444.488,360.964c25.349,7.909,32.019,36.537,14.9,63.956s-51.525,43.24-76.876,35.33S350.5,423.7,367.608,396.276,419.139,353.053,444.488,360.964ZM388.45,450.748c20.5,6.4,48.336-6.4,62.172-28.564s8.436-45.335-12.056-51.731-48.336,6.4-62.172,28.562-8.434,45.337,12.056,51.732" transform="translate(-358.123 -358.925)" fill="#2181ff"/>
      <path id="Path_119" data-name="Path 119" d="M452.788,419.555c-17.111,27.421-51.525,43.24-76.876,35.33a36.806,36.806,0,0,1-10.174-4.941,36.345,36.345,0,0,0,11.306,5.768c25.349,7.909,59.765-7.911,76.876-35.33,11.648-18.659,12.267-37.873,3.493-50.742q-1.86-2.075-3.719-4.151C465.089,378.209,465.487,399.214,452.788,419.555Z" transform="translate(-351.52 -353.559)" fill="#fff" opacity="0.6" style="mix-blend-mode: overlay;isolation: isolate"/>
      <g id="Group_108" data-name="Group 108" transform="translate(10.601 9.881)">
        <path id="Path_120" data-name="Path 120" d="M433.641,366.009c20.492,6.4,25.892,29.562,12.056,51.73S404.022,452.7,383.526,446.3s-25.892-29.56-12.056-51.732S413.145,359.613,433.641,366.009Z" transform="translate(-363.801 -364.362)" fill="#fff"/>
      </g>
      <path id="Path_121" data-name="Path 121" d="M375.006,397.326c13.832-22.167,41.676-34.96,62.168-28.564a30.036,30.036,0,0,1,7.577,3.555,28.716,28.716,0,0,0-11.112-6.308c-20.5-6.4-48.336,6.4-62.172,28.562-11.931,19.123-9.547,38.972,4.479,48.178C365.138,432.706,364.155,414.71,375.006,397.326Z" transform="translate(-353.198 -354.481)" fill="#c4c4c4"/>
      <g id="Group_109" data-name="Group 109" transform="translate(33.842 17.159)">
        <path id="Path_122" data-name="Path 122" d="M416.553,368.366l-37.1,29.66,11.856-1.43Z" transform="translate(-373.469 -368.366)" fill="#d61c1c"/>
        <path id="Path_123" data-name="Path 123" d="M382.233,385.33,376.248,424.7l17.841-40.8Z" transform="translate(-376.248 -355.669)" fill="#156fe8"/>
        <path id="Path_124" data-name="Path 124" d="M385.8,396.6l19.259,11.142,5.985-39.372Z" transform="translate(-367.962 -368.366)" fill="#ff3b3b"/>
        <path id="Path_125" data-name="Path 125" d="M376.248,424.7l37.1-29.661L394.089,383.9Z" transform="translate(-376.248 -355.669)" fill="#2181ff"/>
      </g>
    </g>
  </g>
</svg>
