<svg xmlns="http://www.w3.org/2000/svg" xmlns:xlink="http://www.w3.org/1999/xlink" width="150" height="146" viewBox="0 0 150 146">
  <defs>
    <clipPath id="clip-path">
      <rect id="Rectangle_105" data-name="Rectangle 105" width="150" height="146" fill="none" stroke="#707070" stroke-width="1"/>
    </clipPath>
  </defs>
  <g id="Mask_Group_32" data-name="Mask Group 32" clip-path="url(#clip-path)">
    <g id="Group_119" data-name="Group 119" transform="translate(6 28.227)">
      <path id="Path_138" data-name="Path 138" d="M209.05,94.825l-5.971-5.673a5.635,5.635,0,0,1,1.6,5.113l-11.191,66.115a7.573,7.573,0,0,1-7.56,6.145L79.2,162.421a5.742,5.742,0,0,1-3.784-1.538l5.969,5.673a5.746,5.746,0,0,0,3.784,1.538L191.9,172.2a7.582,7.582,0,0,0,7.562-6.143l11.187-66.115A5.642,5.642,0,0,0,209.05,94.825Z" transform="translate(-73.728 -83.503)" fill="#ffcaad"/>
      <path id="Path_139" data-name="Path 139" d="M200.116,90.315a5.545,5.545,0,0,1,5.4,6.653L194.32,163.084a7.573,7.573,0,0,1-7.56,6.145L80.035,165.124a5.541,5.541,0,0,1-5.384-6.642L85.84,92.369a7.577,7.577,0,0,1,7.55-6.158Z" transform="translate(-74.56 -86.205)" fill="#ffdecc"/>
      <path id="Path_140" data-name="Path 140" d="M203.528,89.44A5.672,5.672,0,0,1,204.676,94l-11.191,66.115a7.573,7.573,0,0,1-7.56,6.145L79.2,162.157a5.745,5.745,0,0,1-3.778-1.534l0,0,1.028.978a5.81,5.81,0,0,0,3.26,1.124l106.725,4.1a7.576,7.576,0,0,0,7.56-6.143l11.191-66.115A5.6,5.6,0,0,0,203.528,89.44Z" transform="translate(-73.725 -83.238)" fill="#fff"/>
      <g id="Group_115" data-name="Group 115" transform="translate(0 35.787)">
        <path id="Path_141" data-name="Path 141" d="M141.046,104.887a17.355,17.355,0,0,1,10.162,3.394l44.148,31.559-1.036,6.107a7.579,7.579,0,0,1-7.562,6.16L80.032,148a5.544,5.544,0,0,1-5.38-6.655l1.048-6.166,54.175-27.717A21.173,21.173,0,0,1,141.046,104.887Z" transform="translate(-74.561 -104.87)" fill="#ffcaad"/>
      </g>
      <g id="Group_116" data-name="Group 116" transform="translate(0 35.787)">
        <path id="Path_142" data-name="Path 142" d="M141.046,104.887a17.355,17.355,0,0,1,10.162,3.394l43.524,35.237-.412,2.429a7.579,7.579,0,0,1-7.562,6.16L80.032,148a5.544,5.544,0,0,1-5.38-6.655l.412-2.427,54.811-31.456A21.173,21.173,0,0,1,141.046,104.887Z" transform="translate(-74.561 -104.87)" fill="#ffdecc"/>
      </g>
      <g id="Group_117" data-name="Group 117" transform="translate(10.441 0)">
        <path id="Path_143" data-name="Path 143" d="M194.977,90.315a5.544,5.544,0,0,1,5.393,6.653l-.814,4.8-54.577,30a21.178,21.178,0,0,1-11.171,2.577,17.359,17.359,0,0,1-10.159-3.4L79.861,97.321l.841-4.952a7.577,7.577,0,0,1,7.55-6.158Z" transform="translate(-79.861 -86.205)" fill="#ffcaad"/>
      </g>
      <g id="Group_118" data-name="Group 118" transform="translate(10.87 0)">
        <path id="Path_144" data-name="Path 144" d="M194.766,90.315a5.544,5.544,0,0,1,5.393,6.653l-.412,2.427-54.811,31.458a21.126,21.126,0,0,1-11.173,2.577,17.32,17.32,0,0,1-10.157-3.4L80.079,94.794l.412-2.425a7.577,7.577,0,0,1,7.55-6.158Z" transform="translate(-80.079 -86.205)" fill="#ffdecc"/>
      </g>
      <path id="Path_145" data-name="Path 145" d="M125.686,102.107a10.228,10.228,0,0,0-8.977,5.041,7.428,7.428,0,0,0-7.157-5.664,10.209,10.209,0,0,0-10.17,8.279c-.871,5.169,2.338,9.117,5.232,11.978a48.016,48.016,0,0,0,4.243,3.7l4.215,3.2,5.242-2.841c.276-.15,2.776-1.519,5.437-3.33,3.816-2.6,8.309-6.25,9.185-11.418A7.465,7.465,0,0,0,125.686,102.107Z" transform="translate(-50.628 -72.196)" fill="#e03443"/>
    </g>
  </g>
</svg>
