<svg xmlns="http://www.w3.org/2000/svg" xmlns:xlink="http://www.w3.org/1999/xlink" width="150" height="146" viewBox="0 0 150 146">
  <defs>
    <clipPath id="clip-path">
      <rect id="Rectangle_103" data-name="Rectangle 103" width="150" height="146" fill="#fff" stroke="#707070" stroke-width="1"/>
    </clipPath>
  </defs>
  <g id="Mask_Group_28" data-name="Mask Group 28" clip-path="url(#clip-path)">
    <g id="Group_103" data-name="Group 103" transform="translate(14.999 26.28)">
      <path id="Path_106" data-name="Path 106" d="M396.263,112.488l35.807,12.6a9.156,9.156,0,0,1,11.633-5.311,8.777,8.777,0,0,1,5.453,11.32,8.9,8.9,0,0,1-4.792,5.037,8.624,8.624,0,0,1,.379,6.861A9.159,9.159,0,0,1,433.11,148.3a8.772,8.772,0,0,1-5.452-11.321l-35.812-12.6Z" transform="translate(-330.2 -60.872)" fill="#fff0e8"/>
      <path id="Path_107" data-name="Path 107" d="M437.013,147.493a36.991,36.991,0,0,1-5.341,7.591,42.231,42.231,0,0,1-6.354,5.714,52.677,52.677,0,0,1-16.733,8.026,68.205,68.205,0,0,1-21.273,2.383,74.521,74.521,0,0,1-20.869-3.855C382.6,173.069,402.6,162.9,413.459,142.4c12.1-22.848,8.262-49.879-8.567-60.379a41.85,41.85,0,0,1,7.407,3.733h0c1.807,1.185,4.172,2.819,5.913,4.09.911.665,2.05,1.643,2.919,2.356a72.9,72.9,0,0,1,5.773,5.523c1.547,1.768,3.53,4.2,4.949,6.066.718.947,1.544,2.3,2.183,3.3a49.459,49.459,0,0,1,4.012,8.041,45.45,45.45,0,0,1,2.608,9.611,29.264,29.264,0,0,1,.347,3.011,42.221,42.221,0,0,1,.059,5.065,38.028,38.028,0,0,1-.986,6.657,32.549,32.549,0,0,1-1.263,4.043A35.043,35.043,0,0,1,437.013,147.493Z" transform="translate(-345.446 -77.855)" fill="#9b252e"/>
      <path id="Path_108" data-name="Path 108" d="M412.767,83.516c-16.834-10.5-40.287-.488-52.388,22.359s-8.262,49.877,8.57,60.378,40.286.487,52.385-22.358S429.6,94.017,412.767,83.516Z" transform="translate(-353.321 -79.347)" fill="#e03443"/>
      <path id="Path_109" data-name="Path 109" d="M408.237,86.671c-14.714-9.177-35.218-.427-45.793,19.545s-7.223,43.6,7.49,52.782,35.215.427,45.793-19.545S422.951,95.849,408.237,86.671Z" transform="translate(-351.55 -77.296)" fill="#ffc3a3"/>
      <path id="Path_110" data-name="Path 110" d="M405.645,88.48c13.5,8.42,16.576,30.1,6.871,48.427S384,163.261,370.5,154.84s-16.578-30.1-6.871-48.429S392.144,80.057,405.645,88.48Z" transform="translate(-350.536 -76.121)" fill="#ff4050"/>
      <path id="Path_111" data-name="Path 111" d="M386.555,101.774c4.57,2.853,5.615,10.2,2.328,16.4s-9.659,8.926-14.23,6.074-5.615-10.2-2.33-16.4S381.983,98.923,386.555,101.774Zm-4.005,7.566c-1.5-.935-3.578-.045-4.652,1.984s-.736,4.431.758,5.362,3.58.044,4.655-1.984.734-4.431-.762-5.362" transform="translate(-343.068 -67.476)" fill="#fff0e8"/>
    </g>
  </g>
</svg>
