<svg xmlns="http://www.w3.org/2000/svg" xmlns:xlink="http://www.w3.org/1999/xlink" width="150" height="146" viewBox="0 0 150 146">
  <defs>
    <clipPath id="clip-path">
      <rect id="Rectangle_108" data-name="Rectangle 108" width="150" height="146" fill="none" stroke="#707070" stroke-width="1"/>
    </clipPath>
  </defs>
  <g id="Mask_Group_29" data-name="Mask Group 29" clip-path="url(#clip-path)">
    <g id="Group_107" data-name="Group 107" transform="translate(11 15.396)">
      <g id="Group_104" data-name="Group 104" transform="translate(0 0)">
        <path id="Rectangle_107" data-name="Rectangle 107" d="M11.472,0H64.294A11.475,11.475,0,0,1,75.768,11.475V84.808A11.472,11.472,0,0,1,64.3,96.28H11.473A11.473,11.473,0,0,1,0,84.807V11.472A11.472,11.472,0,0,1,11.472,0Z" fill="#fff"/>
        <path id="Path_112" data-name="Path 112" d="M244.167,370.867l-13.655,58.84a17.748,17.748,0,0,0,7.636,18.818H255.7a18.234,18.234,0,0,0,18.475-17.981V370.224a17.653,17.653,0,0,0-5.016-12.294l-2.9-.636A18.49,18.49,0,0,0,244.167,370.867Z" transform="translate(-198.406 -352.244)" fill="#c4c4c4"/>
        <path id="Path_113" data-name="Path 113" d="M254.989,379.3a74.127,74.127,0,0,0-6.4-4.574l-6.251-3.937-6.256,3.937a74.957,74.957,0,0,0-6.4,4.574c-4.438,3.553-9.53,8.5-9.53,15.222a11.369,11.369,0,0,0,11.518,11.211,11.635,11.635,0,0,0,7.52-2.744,22.04,22.04,0,0,1-6.464,11.158h19.219a22.048,22.048,0,0,1-6.462-11.158,11.635,11.635,0,0,0,7.52,2.744,11.369,11.369,0,0,0,11.517-11.211C264.518,387.8,259.427,382.857,254.989,379.3Z" transform="translate(-204.45 -344.332)" fill="#383332"/>
        <path id="Path_114" data-name="Path 114" d="M248.1,378.1a74.123,74.123,0,0,0-6.4-4.573l-.968-.61-9.291,40.03h13.615a22.047,22.047,0,0,1-6.462-11.158,11.635,11.635,0,0,0,7.52,2.744,11.369,11.369,0,0,0,11.517-11.211C257.629,386.6,252.537,381.652,248.1,378.1Z" transform="translate(-197.561 -343.127)" fill="#242120"/>
      </g>
      <g id="Group_106" data-name="Group 106" transform="translate(33.266 9.756)">
        <path id="Path_115" data-name="Path 115" d="M303.533,453.613a18.61,18.61,0,0,1-23.587,10.934l-36.584-12.636a17.856,17.856,0,0,1-11.233-22.957l20.723-56.849a18.61,18.61,0,0,1,23.587-10.931l36.584,12.634a17.861,17.861,0,0,1,11.233,22.958Z" transform="translate(-231.059 -360.135)" fill="#fff"/>
        <g id="Group_105" data-name="Group 105" transform="translate(27.572 32.141)">
          <path id="Path_116" data-name="Path 116" d="M261.741,417.693l-4.543-5.746a72.146,72.146,0,0,1-4.462-6.393c-2.96-4.793-6.061-11.111-3.749-17.449a11.6,11.6,0,0,1,14.7-6.815,11.255,11.255,0,0,1,7.662,10.037,11.732,11.732,0,0,1,12.446-3.1,11.138,11.138,0,0,1,7,14.315c-2.311,6.338-8.808,9.34-14.212,11.246a77,77,0,0,1-7.6,2.227Z" transform="translate(-248.181 -380.641)" fill="#e03443"/>
        </g>
      </g>
    </g>
  </g>
</svg>
