<svg xmlns="http://www.w3.org/2000/svg" xmlns:xlink="http://www.w3.org/1999/xlink" width="150" height="146" viewBox="0 0 150 146">
  <defs>
    <clipPath id="clip-path">
      <rect id="Rectangle_104" data-name="Rectangle 104" width="150" height="146" fill="none" stroke="#707070" stroke-width="1"/>
    </clipPath>
  </defs>
  <g id="Mask_Group_31" data-name="Mask Group 31" clip-path="url(#clip-path)">
    <g id="Group_114" data-name="Group 114" transform="translate(11.001 14.6)">
      <path id="Path_126" data-name="Path 126" d="M281.235,225.618l28.4,31.582-26.777,72.018-28.4-31.58Z" transform="translate(-182.217 -211.343)" fill="#6e8f06"/>
      <g id="Group_111" data-name="Group 111" transform="translate(80.452 27.858)">
        <path id="Path_127" data-name="Path 127" d="M297.355,251.912l-17.089-19-2.624,7.053-2.782-3.095L258.751,280.2l2.783,3.093-2.625,7.055,17.091,19,2.621-7.055,2.782,3.093,16.11-43.328-2.783-3.093,2.625-7.053" transform="translate(-258.751 -232.913)" fill="#383332"/>
        <path id="Path_128" data-name="Path 128" d="M268.24,258.347c-.515-.572-1.173-.57-1.9,0a6.315,6.315,0,0,0-1.768,2.75,10.718,10.718,0,0,0-.685,3.973,4.377,4.377,0,0,0,.809,2.795,1.239,1.239,0,0,0,1.8.11,5.736,5.736,0,0,0,1.808-2.724,11.451,11.451,0,0,0,.712-3.925,4.542,4.542,0,0,0-.782-2.979" transform="translate(-254.062 -211.36)" fill="#fa0"/>
        <path id="Path_129" data-name="Path 129" d="M280.6,246.777,274.6,240.1l-4.954,13.329,3.183,3.538,2.043-5.5,2.42,2.691-3.053,8.209-1.417-1.577c-.847-.942-1.7-1.156-2.552-.622-.893.562-1.762,1.951-2.571,4.133l-1.945,5.228,3.315,3.685,1.439-3.865,1.551,1.722c1.68,1.866,3.684.3,5.354-4.2l3.459-9.3a16.345,16.345,0,0,0,1.293-6.88,6.529,6.529,0,0,0-1.555-3.916" transform="translate(-252.362 -226.719)" fill="#fa0"/>
      </g>
      <path id="Path_130" data-name="Path 130" d="M288.937,270.907l28.4,31.58L245.1,288.212l-28.4-31.58Z" transform="translate(-216.694 -184.612)" fill="#5a7505"/>
      <g id="Group_112" data-name="Group 112" transform="translate(12.97 78.061)">
        <path id="Path_131" data-name="Path 131" d="M271.231,268.464l-43.461-8.588,2.782,3.093-7.076-1.4,17.089,19,7.076,1.4,2.782,3.093,43.463,8.588-2.784-3.093,7.076,1.4-17.089-19-7.076-1.4-2.782-3.093" transform="translate(-223.475 -259.876)" fill="#2e2a29"/>
        <path id="Path_132" data-name="Path 132" d="M244.832,271.092a5.232,5.232,0,0,0-2.827-.02c-.505.238-.516.653-.027,1.2a8.493,8.493,0,0,0,2.753,1.75,17.968,17.968,0,0,0,3.855,1.246,5.724,5.724,0,0,0,2.787.067c.578-.207.62-.616.107-1.184a8.572,8.572,0,0,0-2.657-1.728,17.832,17.832,0,0,0-3.99-1.328" transform="translate(-206.911 -250.38)" fill="#f80"/>
        <path id="Path_133" data-name="Path 133" d="M248.19,266.078l-15.277-3.018,5.257,5.843,8.1,1.6-2.169-2.413,6.156,1.216,3.237,3.6-3.61-.713a11.02,11.02,0,0,0-4.386-.3c-.8.24-.775.847.086,1.8l2.062,2.292,8.43,1.666-1.523-1.7,3.943.778c4.272.845,5.766.171,3.994-1.8l-3.669-4.079a12.407,12.407,0,0,0-4.6-3.031,32.472,32.472,0,0,0-6.03-1.748" transform="translate(-214.858 -257.132)" fill="#f80"/>
      </g>
      <path id="Path_134" data-name="Path 134" d="M315.713,232.226l-26.775,72.02-72.243-14.275,26.777-72.02Z" transform="translate(-216.694 -217.951)" fill="#8ab307"/>
      <g id="Group_113" data-name="Group 113" transform="translate(12.649 10.135)">
        <path id="Path_135" data-name="Path 135" d="M292.576,231.982l-43.461-8.588-2.625,7.053-7.075-1.4-16.109,43.326,7.075,1.4-2.623,7.055,43.463,8.59,2.623-7.055,7.074,1.4,16.111-43.328-7.074-1.4,2.621-7.053" transform="translate(-223.307 -223.395)" fill="#474140"/>
        <path id="Path_136" data-name="Path 136" d="M242.027,246.328a5.465,5.465,0,0,0-3.967.817,6.161,6.161,0,0,0-2.586,3.072,4.23,4.23,0,0,0,.186,3.629,3.983,3.983,0,0,0,2.829,2,5.535,5.535,0,0,0,3.816-.685,5.863,5.863,0,0,0,2.674-3.067,4.51,4.51,0,0,0-.105-3.6,3.882,3.882,0,0,0-2.846-2.162" transform="translate(-212.49 -203.708)" fill="#ffd321"/>
        <path id="Path_137" data-name="Path 137" d="M258.835,232.283l-15.28-3.02L238.6,242.592l8.092,1.6,2.047-5.5,6.154,1.216-3.051,8.211-3.61-.715a8.333,8.333,0,0,0-5.59.577,8.054,8.054,0,0,0-3.7,4.58L237,257.789l8.428,1.666,1.439-3.867,3.946.778c4.268.845,7.826-1.337,9.5-5.832l3.457-9.3c1.023-2.752,1-4.891-.084-6.334a7.54,7.54,0,0,0-4.844-2.614" transform="translate(-210.808 -218.336)" fill="#ffd321"/>
      </g>
    </g>
  </g>
</svg>
